<svg width="356" height="320" viewBox="0 0 356 320" fill="none" xmlns="http://www.w3.org/2000/svg">
<path opacity="0.9" fill-rule="evenodd" clip-rule="evenodd" d="M103.054 64C120.727 64 135.054 49.6731 135.054 32C135.054 14.3269 120.727 0 103.054 0C85.3807 0 71.0538 14.3269 71.0538 32C71.0538 49.6731 85.3807 64 103.054 64ZM177.43 192C195.103 192 209.43 177.673 209.43 160C209.43 142.327 195.103 128 177.43 128C159.757 128 145.43 142.327 145.43 160C145.43 177.673 159.757 192 177.43 192Z" fill="white"/>
<path opacity="0.7" fill-rule="evenodd" clip-rule="evenodd" d="M281.259 32C281.259 49.6731 266.932 64 249.259 64C231.586 64 217.259 49.6731 217.259 32C217.259 14.3269 231.586 0 249.259 0C266.932 0 281.259 14.3269 281.259 32ZM356 160C356 177.673 341.673 192 324 192C306.327 192 292 177.673 292 160C292 142.327 306.327 128 324 128C341.673 128 356 142.327 356 160ZM105.376 320C123.049 320 137.376 305.673 137.376 288C137.376 270.327 123.049 256 105.376 256C87.7032 256 73.3763 270.327 73.3763 288C73.3763 305.673 87.7032 320 105.376 320ZM64 160C64 177.673 49.6731 192 32 192C14.3269 192 0 177.673 0 160C0 142.327 14.3269 128 32 128C49.6731 128 64 142.327 64 160ZM251.805 320C269.478 320 283.805 305.673 283.805 288C283.805 270.327 269.478 256 251.805 256C234.132 256 219.805 270.327 219.805 288C219.805 305.673 234.132 320 251.805 320Z" fill="white"/>
<path opacity="0.4" fill-rule="evenodd" clip-rule="evenodd" d="M244.164 63.5966C238.205 62.6431 232.795 60.0442 228.415 56.2805L186.29 129.242C192.014 130.888 197.08 134.088 201.001 138.357L244.164 63.5966ZM218.542 23L133.771 23C134.606 25.8549 135.054 28.8752 135.054 32C135.054 34.8697 134.676 37.6511 133.968 40.2973H218.345C217.637 37.6511 217.259 34.8697 217.259 32C217.259 28.8752 217.707 25.8549 218.542 23ZM316.876 191.204C311.044 189.878 305.818 186.96 301.679 182.93L259.021 256.817C264.847 258.16 270.064 261.093 274.192 265.135L316.876 191.204ZM293.283 151H208.147C208.982 153.855 209.43 156.875 209.43 160C209.43 162.87 209.052 165.651 208.344 168.297H293.086C292.378 165.651 292 162.87 292 160C292 156.875 292.448 153.855 293.283 151ZM127.952 265.321L170.694 191.29C164.838 190.035 159.577 187.179 155.391 183.201L112.853 256.878C118.663 258.269 123.857 261.244 127.952 265.321ZM97.6098 256.949C91.8184 258.393 86.6513 261.415 82.5915 265.531L39.6123 191.089C45.4133 189.674 50.5946 186.677 54.6735 182.581L97.6098 256.949Z" fill="white"/>
</svg>
