<svg width="280" height="280" viewBox="0 0 280 280" fill="none" xmlns="http://www.w3.org/2000/svg">
<g style="mix-blend-mode:color-dodge" opacity="0.9">
<path d="M188.569 34.0256H3.99464C1.78846 34.0256 0 35.8102 0 38.0115V95.9885C0 98.1898 1.78846 99.9744 3.99464 99.9744H188.569V130.007C188.569 133.299 192.343 135.172 194.975 133.185L278.416 70.1784C280.528 68.5835 280.528 65.4165 278.416 63.8216L194.975 0.814793C192.343 -1.17204 188.569 0.700699 188.569 3.99319V34.0256Z" fill="white"/>
</g>
<path opacity="0.6" d="M91.4306 180.026H276.005C278.212 180.026 280 181.81 280 184.012V241.988C280 244.19 278.212 245.974 276.005 245.974H91.4306V276.007C91.4306 279.299 87.6566 281.172 85.0254 279.185L1.58414 216.178C-0.528015 214.584 -0.528015 211.416 1.58414 209.822L85.0254 146.815C87.6566 144.828 91.4306 146.701 91.4306 149.993V180.026Z" fill="white"/>
</svg>
