<svg width="264" height="284" viewBox="0 0 264 284" fill="none" xmlns="http://www.w3.org/2000/svg">
<path opacity="0.9" fill-rule="evenodd" clip-rule="evenodd" d="M6.08388 69.5597C2.32389 71.6904 3.05176e-05 75.6782 3.05176e-05 80V109.007C3.05176e-05 113.425 3.58175 117.007 8.00002 117.007H256C260.418 117.007 264 113.425 264 109.007V80C264 75.6783 261.676 71.6904 257.916 69.5597L137.916 1.55973C134.246 -0.519909 129.754 -0.519912 126.084 1.55973L6.08388 69.5597ZM12 226.8C5.37261 226.8 3.05176e-05 232.173 3.05176e-05 238.8V276C3.05176e-05 280.419 3.58175 284 8.00002 284H256C260.418 284 264 280.419 264 276V238.8C264 232.173 258.627 226.8 252 226.8H132H12Z" fill="white"/>
<path opacity="0.7" fill-rule="evenodd" clip-rule="evenodd" d="M188.099 117.007H233.199V226.8H188.099V117.007ZM110.001 117.007H155.101V226.8H132H110.001V117.007ZM31.9002 117.007H77.0002V226.8H31.9002V117.007Z" fill="white"/>
</svg>
