<svg width="290" height="294" viewBox="0 0 290 294" fill="none" xmlns="http://www.w3.org/2000/svg">
<path opacity="0.7" d="M212 14.4651C212 6.47625 218.476 0 226.465 0H247.535C255.524 0 262 6.47625 262 14.4651V105.535C262 113.524 255.524 120 247.535 120H226.465C218.476 120 212 113.524 212 105.535V14.4651Z" fill="white"/>
<path opacity="0.7" d="M102 178.465C102 170.476 108.476 164 116.465 164H173.535C181.524 164 188 170.476 188 178.465V294H102V178.465Z" fill="white"/>
<path opacity="0.7" d="M0 272.302V151.542C0 136.241 6.06046 121.564 16.8554 110.72L114.246 12.8919C122.727 4.3726 133.864 6.07023e-06 145 0C156.136 -6.07024e-06 167.273 4.37258 175.754 12.8919L273.145 110.72C283.94 121.564 290 136.241 290 151.542V272.302C290 284.286 280.286 294 268.302 294H21.6977C9.71438 294 0 284.286 0 272.302Z" fill="white"/>
</svg>
