<svg width="292" height="320" viewBox="0 0 292 320" fill="none" xmlns="http://www.w3.org/2000/svg">
<path opacity="0.7" fill-rule="evenodd" clip-rule="evenodd" d="M54.3781 316.807L209.061 250.559C212.559 249.061 215.758 247.089 218.595 244.738C210.059 240.943 204.107 232.39 204.107 222.447C204.107 208.98 215.024 198.063 228.49 198.063C229.931 198.063 231.342 198.188 232.714 198.428L232.714 39.055C232.714 11.0325 204.049 -7.85102 178.302 3.20984L23.6198 69.6607C9.29197 75.8159 0.00584746 89.9119 0.00585938 105.506L0.00594846 280.945C0.00595678 308.949 28.6358 327.832 54.3781 316.807Z" fill="white"/>
<path opacity="0.7" fill-rule="evenodd" clip-rule="evenodd" d="M0.00608713 105.408L0.00628558 280.966C0.00628558 302.512 17.473 319.979 39.0192 319.979H252.987C274.533 319.979 292 302.512 292 280.966V163.927C292 142.381 274.533 124.914 252.987 124.914H39.0192L38.9023 124.914C20.7752 124.861 5.55674 112.446 1.23516 95.655C1.23516 95.655 -0.100791 100.532 0.00608713 105.408ZM228.49 246.83C241.957 246.83 252.873 235.913 252.873 222.447C252.873 208.98 241.957 198.064 228.49 198.064C215.024 198.064 204.107 208.98 204.107 222.447C204.107 235.913 215.024 246.83 228.49 246.83Z" fill="white"/>
</svg>
