<svg width="320" height="320" viewBox="0 0 320 320" fill="none" xmlns="http://www.w3.org/2000/svg">
<path opacity="0.7" d="M186.018 248.314L186.018 108.018C186.018 105.799 184.226 104 182.015 104L137.985 104C135.774 104 133.982 105.799 133.982 108.018L133.982 248.314L112.01 248.314C108.704 248.314 106.823 252.11 108.818 254.756L156.808 318.407C158.41 320.531 161.59 320.531 163.192 318.407L211.182 254.756C213.177 252.11 211.296 248.314 207.99 248.314L186.018 248.314Z" fill="white"/>
<path opacity="0.7" d="M280.483 99.7194C281.408 94.6838 281.875 89.5475 281.875 84.375C281.875 37.8481 244.027 0 197.5 0C167.8 0 140.271 15.8206 125.146 40.9606C104.73 34.3419 83.7825 37.18 66.525 49.0725C49.2675 60.9556 38.9675 79.77 38.1344 100.342C15.4475 111.118 0 134.061 0 159.375C0 163.769 1.06438 168.054 1.87875 172.211L1.88812 172.22C7.94937 202.807 35.0212 225 66.25 225H253.75C289.932 225 320 195.557 320 159.375C320 133.786 304.342 110.751 280.483 99.7194Z" fill="white"/>
</svg>
