<svg width="301" height="300" viewBox="0 0 301 300" fill="none" xmlns="http://www.w3.org/2000/svg">
<path opacity="0.7" d="M226.111 12.6773C230.13 8.65811 234.902 5.4699 240.153 3.29472C245.405 1.11955 251.033 4.23492e-08 256.717 0C262.401 -4.23492e-08 268.029 1.11955 273.281 3.29472C278.532 5.4699 283.304 8.65811 287.323 12.6773C291.342 16.6965 294.53 21.468 296.705 26.7193C298.88 31.9707 300 37.599 300 43.283C300 48.967 298.88 54.5954 296.705 59.8467C294.53 65.0981 291.342 69.8696 287.323 73.8888L82.2535 278.958C81.2578 279.954 80.0194 280.672 78.6609 281.043L10.2295 299.706C4.18915 301.353 -1.35331 295.811 0.294051 289.771L18.9572 221.339C19.3277 219.981 20.0463 218.742 21.042 217.747L226.111 12.6773Z" fill="white"/>
<path opacity="0.7" d="M226.112 12.6773C230.131 8.65811 234.903 5.4699 240.154 3.29472C245.406 1.11955 251.034 4.23492e-08 256.718 0C262.402 -4.23492e-08 268.03 1.11955 273.282 3.29472C278.533 5.4699 283.305 8.65811 287.324 12.6773C291.343 16.6965 294.531 21.468 296.706 26.7193C298.882 31.9707 300.001 37.599 300.001 43.283C300.001 48.9671 298.882 54.5954 296.706 59.8467C294.531 65.0981 291.343 69.8696 287.324 73.8888L268.553 92.6587L207.341 31.4472L226.112 12.6773Z" fill="white"/>
</svg>
