<?xml version="1.0" encoding="UTF-8"?>
<svg width="102px" height="94px" viewBox="0 0 102 94" version="1.1" xmlns="http://www.w3.org/2000/svg" xmlns:xlink="http://www.w3.org/1999/xlink">
    <title>flend</title>
    <g id="10-DeFi" stroke="none" stroke-width="1" fill="none" fill-rule="evenodd">
        <g id="Group" transform="translate(2.000000, 2.000000)" fill-rule="nonzero" stroke="#1969FF" stroke-width="4">
            <g id="flend">
                <path d="M18.5474031,89.9522306 L6.13789331,89.9522306 C2.74801106,89.9522306 1.14448134e-12,87.2042194 1.14448134e-12,83.8143371 L1.14448134e-12,59.6672766 C1.14448134e-12,56.2773943 2.74801106,53.5293831 6.13789331,53.5293831 L18.5474031,53.5293831 C21.9372853,53.5293831 24.6853025,56.2773943 24.6853025,59.6672766 L24.6853025,83.8143371 C24.6886395,87.2042194 21.9372853,89.9522306 18.5474031,89.9522306 Z" id="Path"></path>
                <path d="M55.124032,89.9522306 L42.7145223,89.9522306 C39.32464,89.9522306 36.5766289,87.2042194 36.5766289,83.8143371 L36.5766289,32.9025849 C36.5766289,29.5127026 39.32464,26.7646916 42.7145223,26.7646916 L55.124032,26.7646916 C58.5139143,26.7646916 61.2619254,29.5127026 61.2619254,32.9025849 L61.2619254,83.8143371 C61.2619254,87.2042194 58.5139143,89.9522306 55.124032,89.9522306 Z" id="Path"></path>
                <path d="M91.6973177,89.9522306 L79.287808,89.9522306 C75.8979257,89.9522306 73.1499149,87.2042194 73.1499149,83.8143371 L73.1499149,6.13789331 C73.1499149,2.74801106 75.8979257,1.87786294e-12 79.287808,1.87786294e-12 L91.6973177,1.87786294e-12 C95.0872,1.87786294e-12 97.8352173,2.74801106 97.8352173,6.13789331 L97.8352173,83.8143371 C97.8385543,87.2042194 95.0905431,89.9522306 91.6973177,89.9522306 Z" id="Path"></path>
            </g>
        </g>
    </g>
</svg>