<?xml version="1.0" encoding="UTF-8"?>
<svg width="128px" height="130px" viewBox="0 0 128 130" version="1.1" xmlns="http://www.w3.org/2000/svg" xmlns:xlink="http://www.w3.org/1999/xlink">
    <title>flend</title>
    <g id="10-DeFi" stroke="none" stroke-width="1" fill="none" fill-rule="evenodd">
        <g id="DeFi-02" transform="translate(-945.000000, -360.000000)" fill="#1969FF" stroke="#1969FF" stroke-width="1.5">
            <g id="fLend" transform="translate(810.000000, 185.000000)">
                <g id="flend" transform="translate(136.000000, 176.000000)">
                    <path d="M119,127.822989 L7,127.822989 C3.21818182,127.822989 0.163636364,124.733333 0.163636364,120.908046 C0.163636364,117.082759 3.21818182,113.993103 7,113.993103 L118.854545,113.993103 C122.636364,113.993103 125.690909,117.082759 125.690909,120.908046 C125.690909,124.733333 122.636364,127.822989 119,127.822989 Z M7,117.082759 C4.81818182,117.082759 3.07272727,118.848276 3.07272727,121.055172 C3.07272727,123.262069 4.81818182,125.027586 7,125.027586 L118.854545,125.027586 C121.036364,125.027586 122.781818,123.262069 122.781818,121.055172 C122.781818,118.848276 121.036364,117.082759 118.854545,117.082759 L7,117.082759 Z" id="Shape"></path>
                    <path d="M29.8363636,108.167816 L25.9090909,108.167816 C20.6727273,108.167816 16.3090909,103.901149 16.3090909,98.4574713 L16.3090909,53.7310345 C16.3090909,48.4344828 20.5272727,44.0206897 25.9090909,44.0206897 L29.8363636,44.0206897 C35.0727273,44.0206897 39.4363636,48.2873563 39.4363636,53.7310345 L39.4363636,98.6045977 C39.2909091,103.901149 35.0727273,108.167816 29.8363636,108.167816 Z M25.9090909,47.1103448 C22.2727273,47.1103448 19.2181818,50.0528736 19.2181818,53.8781609 L19.2181818,98.7517241 C19.2181818,102.429885 22.1272727,105.51954 25.9090909,105.51954 L29.8363636,105.51954 C33.4727273,105.51954 36.5272727,102.577011 36.5272727,98.7517241 L36.5272727,53.7310345 C36.5272727,50.0528736 33.6181818,46.9632184 29.8363636,46.9632184 L25.9090909,46.9632184 L25.9090909,47.1103448 Z" id="Shape"></path>
                    <path d="M65.4727273,108.167816 L61.5454545,108.167816 C56.3090909,108.167816 52.0909091,103.901149 52.0909091,98.6045977 L52.0909091,34.1632184 C52.0909091,28.8666667 56.3090909,24.4528736 61.5454545,24.4528736 L65.4727273,24.4528736 C70.7090909,24.4528736 74.9272727,28.7195402 74.9272727,34.1632184 L74.9272727,98.6045977 C75.0727273,103.901149 70.8545455,108.167816 65.4727273,108.167816 Z M61.6909091,27.3954023 C58.0545455,27.3954023 55.1454545,30.337931 55.1454545,34.1632184 L55.1454545,98.6045977 C55.1454545,102.282759 58.0545455,105.225287 61.6909091,105.225287 L65.6181818,105.225287 C69.2545455,105.225287 72.1636364,102.282759 72.1636364,98.6045977 L72.1636364,34.1632184 C72.1636364,30.4850575 69.2545455,27.3954023 65.6181818,27.3954023 L61.6909091,27.3954023 Z" id="Shape"></path>
                    <path d="M101.254545,108.167816 L97.3272727,108.167816 C92.0909091,108.167816 87.7272727,103.901149 87.7272727,98.6045977 L87.7272727,10.1816092 C87.8727273,4.88505747 92.0909091,0.471264368 97.3272727,0.471264368 L101.254545,0.471264368 C106.490909,0.471264368 110.854545,4.73793103 110.854545,10.0344828 L110.854545,98.4574713 C110.854545,103.901149 106.490909,108.167816 101.254545,108.167816 Z M97.3272727,3.4137931 C93.6909091,3.4137931 90.6363636,6.35632184 90.6363636,10.0344828 L90.6363636,98.4574713 C90.6363636,102.135632 93.5454545,105.078161 97.3272727,105.078161 L101.254545,105.078161 C104.890909,105.078161 107.945455,102.135632 107.945455,98.4574713 L107.945455,10.1816092 C107.945455,6.50344828 105.036364,3.56091954 101.254545,3.56091954 L97.3272727,3.56091954 L97.3272727,3.4137931 Z" id="Shape"></path>
                </g>
            </g>
        </g>
    </g>
</svg>