<?xml version="1.0" encoding="UTF-8"?>
<svg width="90px" height="90px" viewBox="0 0 90 90" version="1.1" xmlns="http://www.w3.org/2000/svg" xmlns:xlink="http://www.w3.org/1999/xlink">
    <title>flend</title>
    <g id="10-DeFi" stroke="none" stroke-width="1" fill="none" fill-rule="evenodd">
        <g id="DeFi-03-Copy" transform="translate(-899.000000, -655.000000)" fill="#1969FF">
            <g id="fTrade-Copy" transform="translate(770.000000, 559.000000)">
                <g id="Group" transform="translate(129.000000, 24.000000)">
                    <g id="flend" transform="translate(0.000000, 72.000000)">
                        <path d="M85,89.8735632 L5,89.8735632 C2.2987013,89.8735632 0.116883117,87.6666667 0.116883117,84.9343186 C0.116883117,82.2019704 2.2987013,79.9950739 5,79.9950739 L84.8961039,79.9950739 C87.5974026,79.9950739 89.7792208,82.2019704 89.7792208,84.9343186 C89.7792208,87.6666667 87.5974026,89.8735632 85,89.8735632 Z M5,82.2019704 C3.44155844,82.2019704 2.19480519,83.4630542 2.19480519,85.0394089 C2.19480519,86.6157635 3.44155844,87.8768473 5,87.8768473 L84.8961039,87.8768473 C86.4545455,87.8768473 87.7012987,86.6157635 87.7012987,85.0394089 C87.7012987,83.4630542 86.4545455,82.2019704 84.8961039,82.2019704 L5,82.2019704 Z" id="Shape"></path>
                        <path d="M21.3116883,77.2627258 L18.5064935,77.2627258 C14.7662338,77.2627258 11.6493506,74.2151067 11.6493506,70.3267652 L11.6493506,38.3793103 C11.6493506,34.5960591 14.6623377,31.4433498 18.5064935,31.4433498 L21.3116883,31.4433498 C25.0519481,31.4433498 28.1688312,34.4909688 28.1688312,38.3793103 L28.1688312,70.4318555 C28.0649351,74.2151067 25.0519481,77.2627258 21.3116883,77.2627258 Z M18.5064935,33.6502463 C15.9090909,33.6502463 13.7272727,35.7520525 13.7272727,38.4844007 L13.7272727,70.5369458 C13.7272727,73.1642036 15.8051948,75.3711002 18.5064935,75.3711002 L21.3116883,75.3711002 C23.9090909,75.3711002 26.0909091,73.2692939 26.0909091,70.5369458 L26.0909091,38.3793103 C26.0909091,35.7520525 24.012987,33.545156 21.3116883,33.545156 L18.5064935,33.545156 L18.5064935,33.6502463 Z" id="Shape"></path>
                        <path d="M46.7662338,77.2627258 L43.961039,77.2627258 C40.2207792,77.2627258 37.2077922,74.2151067 37.2077922,70.4318555 L37.2077922,24.4022989 C37.2077922,20.6190476 40.2207792,17.4663383 43.961039,17.4663383 L46.7662338,17.4663383 C50.5064935,17.4663383 53.5194805,20.5139573 53.5194805,24.4022989 L53.5194805,70.4318555 C53.6233766,74.2151067 50.6103896,77.2627258 46.7662338,77.2627258 Z M44.0649351,19.5681445 C41.4675325,19.5681445 39.3896104,21.6699507 39.3896104,24.4022989 L39.3896104,70.4318555 C39.3896104,73.0591133 41.4675325,75.1609195 44.0649351,75.1609195 L46.8701299,75.1609195 C49.4675325,75.1609195 51.5454545,73.0591133 51.5454545,70.4318555 L51.5454545,24.4022989 C51.5454545,21.7750411 49.4675325,19.5681445 46.8701299,19.5681445 L44.0649351,19.5681445 Z" id="Shape"></path>
                        <path d="M72.3246753,77.2627258 L69.5194805,77.2627258 C65.7792208,77.2627258 62.6623377,74.2151067 62.6623377,70.4318555 L62.6623377,7.272578 C62.7662338,3.48932677 65.7792208,0.336617406 69.5194805,0.336617406 L72.3246753,0.336617406 C76.0649351,0.336617406 79.1818182,3.38423645 79.1818182,7.16748768 L79.1818182,70.3267652 C79.1818182,74.2151067 76.0649351,77.2627258 72.3246753,77.2627258 Z M69.5194805,2.43842365 C66.9220779,2.43842365 64.7402597,4.54022989 64.7402597,7.16748768 L64.7402597,70.3267652 C64.7402597,72.954023 66.8181818,75.0558292 69.5194805,75.0558292 L72.3246753,75.0558292 C74.9220779,75.0558292 77.1038961,72.954023 77.1038961,70.3267652 L77.1038961,7.272578 C77.1038961,4.6453202 75.025974,2.54351396 72.3246753,2.54351396 L69.5194805,2.54351396 L69.5194805,2.43842365 Z" id="Shape"></path>
                    </g>
                </g>
            </g>
        </g>
    </g>
</svg>