<?xml version="1.0" encoding="UTF-8"?>
<svg width="90px" height="90px" viewBox="0 0 90 90" version="1.1" xmlns="http://www.w3.org/2000/svg" xmlns:xlink="http://www.w3.org/1999/xlink">
    <title>Shape</title>
    <g id="10-DeFi" stroke="none" stroke-width="1" fill="none" fill-rule="evenodd">
        <g id="DeFi-03-Copy" transform="translate(-431.000000, -655.000000)" fill="#1969FF">
            <g id="fTrade" transform="translate(302.000000, 559.000000)">
                <g id="Group" transform="translate(129.000000, 24.000000)">
                    <g id="noun_swap_1259590" transform="translate(0.000000, 72.000000)">
                        <path d="M25.2398306,23.0175893 L75.0472767,23.0175893 L60.3708264,37.7752924 C59.5050724,38.6444413 59.5050724,40.0558798 60.3708264,40.9265144 C60.8037033,41.3618317 61.3710233,41.5787475 61.9383433,41.5787475 C62.5056634,41.5787475 63.0729834,41.3618317 63.5058603,40.9265144 L81.9629666,22.3668419 C82.0649069,22.2643269 82.1579829,22.1499261 82.2392396,22.0280967 C82.2599232,21.9983822 82.2702649,21.9656963 82.2879937,21.9359818 C82.3456121,21.8423811 82.4002758,21.7472947 82.4431203,21.6447797 C82.460849,21.600208 82.4697134,21.5511791 82.4844873,21.5066073 C82.5155127,21.4144924 82.5494928,21.3253489 82.5686989,21.2287768 C82.5997242,21.0846615 82.6130208,20.9375748 82.6130208,20.7890023 C82.6130208,20.6404299 82.5982468,20.4918574 82.5686989,20.3492278 C82.5494928,20.2526557 82.5169901,20.1635123 82.4844873,20.0713973 C82.468236,20.0253399 82.4593716,19.9777967 82.4431203,19.9332249 C82.4002758,19.8307099 82.3456121,19.7356236 82.2879937,19.6420229 C82.2702649,19.6123084 82.2584458,19.5796225 82.2392396,19.549908 C82.1579829,19.4280785 82.0663843,19.3151635 81.9629666,19.2111627 L63.5073377,0.652975989 C62.6415838,-0.217658663 61.2395351,-0.217658663 60.3737811,0.652975989 C59.5080272,1.52212492 59.5080272,2.93504907 60.3737811,3.804198 L75.0472767,18.5604153 L25.2398306,18.5604153 C11.3227617,18.5604153 0,29.9470092 0,43.9425355 C0,45.1742012 0.992810007,46.1711225 2.21609377,46.1711225 C3.43937752,46.1711225 4.43218753,45.1742012 4.43218753,43.9425355 C4.43218753,32.4043977 13.7663745,23.0175893 25.2398306,23.0175893 Z M87.7839062,43.8296204 C86.5606225,43.8296204 85.5678125,44.8265416 85.5678125,46.0582074 C85.5678125,57.5963451 76.2336255,66.9831535 64.7601694,66.9831535 L14.9527233,66.9831535 L29.6291736,52.2254505 C30.4949276,51.3563015 30.4949276,49.9448631 29.6291736,49.0742285 C28.7634197,48.2035938 27.361371,48.2035938 26.4956171,49.0742285 L8.03703339,67.6339009 C7.93509308,67.7364159 7.84201714,67.8508167 7.76076037,67.9726462 C7.73859943,68.0038464 7.72678026,68.0395038 7.70757412,68.070704 C7.65291047,68.1628189 7.59824682,68.2549338 7.55540234,68.3544774 C7.5361962,68.4005349 7.52733182,68.4495638 7.51255786,68.4985927 C7.48153255,68.5877362 7.44902984,68.6768796 7.4298237,68.7704803 C7.40027578,68.9145956 7.38550182,69.0616823 7.38550182,69.2117405 C7.38550182,69.3617987 7.40175318,69.5088855 7.4298237,69.6530008 C7.44902984,69.7466014 7.48153255,69.8357449 7.51255786,69.9248884 C7.52880922,69.9724316 7.53767359,70.0214605 7.55540234,70.0690037 C7.59676943,70.1685472 7.65143307,70.2606621 7.70757412,70.3527771 C7.72678026,70.3839773 7.73859943,70.4196347 7.76076037,70.4508349 C7.84201714,70.5726643 7.93361568,70.6855794 8.03703339,70.7895801 L26.4911849,89.3477669 C26.9240619,89.7830842 27.4913819,90 28.0587019,90 C28.6260219,90 29.1933419,89.7830842 29.6262189,89.3477669 C30.4919728,88.4786179 30.4919728,87.0656938 29.6262189,86.1965449 L14.9527233,71.4403275 L64.7601694,71.4403275 C78.6772383,71.4403275 90,60.0537337 90,46.0582074 C90,44.8265416 89.00719,43.8296204 87.7839062,43.8296204 Z" id="Shape"></path>
                    </g>
                </g>
            </g>
        </g>
    </g>
</svg>