<?xml version="1.0" encoding="UTF-8"?>
<svg width="107px" height="94px" viewBox="0 0 107 94" version="1.1" xmlns="http://www.w3.org/2000/svg" xmlns:xlink="http://www.w3.org/1999/xlink">
    <title>ftrade</title>
    <g id="10-DeFi" stroke="none" stroke-width="1" fill="none" fill-rule="evenodd">
        <g id="Group" transform="translate(2.000000, 2.000000)" fill="#1969FF" stroke="#FFFFFF" stroke-width="3">
            <g id="ftrade">
                <path d="M26.7509646,0.716452292 C28.4264936,1.93379541 28.7979267,4.27893166 27.5805836,5.95446072 L10.883,28.935 L99.375,28.9359645 C101.446068,28.9359645 103.125,30.6148967 103.125,32.6859645 C103.125,34.7570323 101.446068,36.4359645 99.375,36.4359645 L3.75,36.4359645 C1.67893219,36.4359645 2.53632657e-16,34.7570323 0,32.6859645 C-1.26910012e-16,31.6496656 0.420353418,30.7115456 1.09985395,30.0328106 C1.21671591,29.6195196 1.40756108,29.2187736 1.6752039,28.8503949 L21.5129562,1.54607132 C22.7302993,-0.129457732 25.0754355,-0.500890825 26.7509646,0.716452292 Z" id="Combined-Shape"></path>
                <path d="M26.7509646,54.1539523 C28.4264936,55.3712954 28.7979267,57.7164317 27.5805836,59.3919607 L10.883,82.3725 L99.375,82.3734645 C101.446068,82.3734645 103.125,84.0523967 103.125,86.1234645 C103.125,88.1945323 101.446068,89.8734645 99.375,89.8734645 L3.75,89.8734645 C1.67893219,89.8734645 2.53632657e-16,88.1945323 0,86.1234645 C-1.26910012e-16,85.0871656 0.420353418,84.1490456 1.09985395,83.4703106 C1.21671591,83.0570196 1.40756108,82.6562736 1.6752039,82.2878949 L21.5129562,54.9835713 C22.7302993,53.3080423 25.0754355,52.9366092 26.7509646,54.1539523 Z" id="Combined-Shape-Copy" transform="translate(51.562500, 71.655482) scale(-1, -1) translate(-51.562500, -71.655482) "></path>
            </g>
        </g>
    </g>
</svg>