<?xml version="1.0" encoding="UTF-8"?>
<svg width="100px" height="90px" viewBox="0 0 100 90" version="1.1" xmlns="http://www.w3.org/2000/svg" xmlns:xlink="http://www.w3.org/1999/xlink">
    <title>Shape</title>
    <g id="10-DeFi" stroke="none" stroke-width="1" fill="none" fill-rule="evenodd">
        <g id="DeFi-03" transform="translate(-422.000000, -273.000000)" fill="#1969FF">
            <g id="fTrade-Copy-3" transform="translate(302.000000, 177.000000)">
                <path d="M219.983333,126 C219.816667,123.15 216.433333,120.916667 209.65,119.216667 C209.866667,118.716667 210,118.2 210,117.666667 L210,106 L209.966667,106 C209.383333,96.2833333 169.566667,96 165,96 C160.433333,96 120.616667,96.2833333 120.033333,106 L120,106 L120,106.216667 L120,106.216667 C120,106.216667 120,106.216667 120,106.216667 L120,117.666667 C120,120.833333 124.1,123.316667 130.183333,125.15 C130.1,125.433333 130.05,125.716667 130.033333,126 L130,126 L130,126.216667 L130,126.216667 C130,126.216667 130,126.216667 130,126.216667 L130,137.65 C123.45,139.333333 120.183333,141.533333 120.016667,144.333333 L120,144.333333 L120,144.55 C120,144.55 120,144.55 120,144.55 C120,144.55 120,144.55 120,144.55 L120,156 C120,158.2 122,160.083333 125.25,161.633333 C125.133333,161.966667 125.05,162.316667 125.033333,162.666667 L125,162.666667 L125,162.883333 L125,162.883333 C125,162.883333 125,162.883333 125,162.883333 L125,174.333333 C125.016667,179.883333 137.5,183.316667 151.366667,184.916667 C151.466667,184.933333 151.566667,184.983333 151.666667,184.983333 C151.7,184.983333 151.716667,184.966667 151.75,184.966667 C154.416667,185.266667 157.133333,185.5 159.833333,185.666667 C159.883333,185.666667 159.933333,185.7 160,185.7 C160.033333,185.7 160.05,185.683333 160.083333,185.683333 C163.5,185.9 166.866667,186 170,186 C173.133333,186 176.5,185.9 179.916667,185.683333 C179.95,185.683333 179.966667,185.7 180,185.7 C180.066667,185.7 180.116667,185.666667 180.166667,185.666667 C182.85,185.5 185.566667,185.266667 188.25,184.966667 C188.283333,184.966667 188.3,184.983333 188.333333,184.983333 C188.433333,184.983333 188.533333,184.933333 188.633333,184.916667 C202.5,183.316667 214.983333,179.866667 215,174.333333 L215,162.666667 L214.966667,162.666667 C214.85,160.616667 213.1,158.916667 209.666667,157.5 C209.883333,157.016667 210,156.516667 210,156 L210,145.1 C215.983333,143.266667 220,140.8 220,137.666667 L220,126 L219.983333,126 Z M206.483333,156.533333 L205.916667,157.033333 C205.033333,157.8 203.583333,158.583333 201.666667,159.333333 L201.666667,151.383333 C203.65,150.7 205.333333,149.933333 206.666667,149.083333 L206.666667,155.983333 C206.666667,156.166667 206.6,156.35 206.483333,156.533333 Z M169.216667,164.283333 C168.966667,164.283333 168.733333,164.3 168.483333,164.3 C167.883333,164.316667 167.283333,164.316667 166.666667,164.316667 L166.666667,156 C167.116667,156 167.583333,155.983333 168.05,155.983333 C168.133333,155.983333 168.233333,155.983333 168.316667,155.983333 C170,155.95 171.666667,155.9 173.35,155.816667 L173.35,164.133333 C173,164.15 172.633333,164.166667 172.266667,164.183333 C171.25,164.216667 170.233333,164.25 169.216667,164.283333 Z M161.933333,164.3 C161.166667,164.283333 160.416667,164.266667 159.65,164.25 C159.55,164.25 159.466667,164.25 159.366667,164.233333 C158.466667,164.2 157.55,164.166667 156.666667,164.116667 L156.666667,155.8 C158.333333,155.883333 160.016667,155.933333 161.7,155.966667 C161.783333,155.966667 161.883333,155.966667 161.966667,155.966667 C162.433333,155.966667 162.883333,155.983333 163.35,155.983333 L163.35,164.316667 C163.033333,164.316667 162.7,164.316667 162.383333,164.316667 C162.216667,164.316667 162.083333,164.3 161.933333,164.3 Z M131.833333,160.5 C131.783333,160.483333 131.733333,160.466667 131.666667,160.45 L131.666667,152.4 C133.216667,152.816667 134.9,153.2 136.666667,153.55 L136.666667,161.683333 C135.133333,161.366667 133.716667,161.016667 132.433333,160.666667 C132.233333,160.616667 132.033333,160.566667 131.833333,160.5 Z M166.95,174.3 C167.416667,174.3 167.866667,174.316667 168.333333,174.316667 L168.333333,182.65 C166.033333,182.633333 163.8,182.566667 161.666667,182.45 L161.666667,174.133333 C163.333333,174.216667 165.016667,174.266667 166.7,174.3 C166.783333,174.3 166.866667,174.3 166.95,174.3 Z M173.3,174.3 C174.983333,174.266667 176.65,174.216667 178.333333,174.133333 L178.333333,182.45 C176.2,182.55 173.966667,182.616667 171.666667,182.65 L171.666667,174.316667 C172.116667,174.316667 172.583333,174.3 173.05,174.3 C173.133333,174.3 173.216667,174.3 173.3,174.3 Z M186.666667,173.55 L186.666667,181.833333 C185.066667,182 183.4,182.15 181.666667,182.266667 L181.666667,173.95 C183.35,173.833333 185.033333,173.7 186.666667,173.55 Z M190,173.183333 C191.716667,172.983333 193.383333,172.733333 195,172.483333 L195,180.666667 C193.433333,180.95 191.766667,181.2 190,181.433333 L190,173.183333 Z M198.333333,171.883333 C200.1,171.533333 201.783333,171.15 203.333333,170.733333 L203.333333,178.783333 C201.85,179.216667 200.183333,179.633333 198.333333,180.016667 L198.333333,171.883333 Z M141.666667,171.883333 L141.666667,180.016667 C139.816667,179.633333 138.15,179.216667 136.666667,178.783333 L136.666667,170.733333 C138.216667,171.15 139.9,171.533333 141.666667,171.883333 Z M145,172.483333 C146.616667,172.75 148.283333,172.983333 150,173.183333 L150,181.433333 C148.233333,181.2 146.566667,180.95 145,180.666667 L145,172.483333 Z M153.333333,173.55 C154.966667,173.716667 156.65,173.85 158.333333,173.95 L158.333333,182.266667 C156.6,182.15 154.933333,182 153.333333,181.833333 L153.333333,173.55 Z M149.2,163.583333 C149.033333,163.566667 148.866667,163.55 148.7,163.533333 C148.583333,163.516667 148.466667,163.5 148.333333,163.5 L148.333333,155.216667 C149.966667,155.383333 151.65,155.516667 153.333333,155.616667 L153.333333,163.916667 C151.933333,163.816667 150.55,163.716667 149.2,163.583333 Z M145,154.85 L145,163.1 C143.233333,162.866667 141.566667,162.616667 140,162.333333 L140,154.15 C141.616667,154.416667 143.283333,154.65 145,154.85 Z M177.783333,163.85 C177.416667,163.883333 177.05,163.9 176.666667,163.933333 L176.666667,155.616667 C178.35,155.5 180.033333,155.366667 181.666667,155.216667 L181.666667,163.5 C180.633333,163.616667 179.583333,163.716667 178.5,163.8 C178.266667,163.816667 178.016667,163.833333 177.783333,163.85 Z M185,163.1 L185,154.85 C186.716667,154.65 188.383333,154.4 190,154.15 L190,162.333333 C188.433333,162.616667 186.766667,162.866667 185,163.1 Z M193.333333,153.55 C195.1,153.2 196.783333,152.816667 198.333333,152.4 L198.333333,160.45 C196.85,160.883333 195.183333,161.3 193.333333,161.683333 L193.333333,153.55 Z M170.55,145.95 C169.3,145.916667 168.066667,145.866667 166.866667,145.816667 C166.8,145.816667 166.733333,145.816667 166.666667,145.8 L166.666667,137.483333 C168.333333,137.566667 170.016667,137.616667 171.7,137.65 C171.783333,137.65 171.883333,137.65 171.966667,137.65 C172.433333,137.65 172.883333,137.666667 173.35,137.666667 L173.35,145.983333 C172.533333,145.983333 171.716667,145.966667 170.933333,145.95 C170.783333,145.95 170.666667,145.95 170.55,145.95 Z M131.666667,122.116667 L131.666667,114.066667 C133.216667,114.483333 134.9,114.866667 136.666667,115.216667 L136.666667,123.35 C136.466667,123.3 136.25,123.266667 136.05,123.216667 C135.166667,123.016667 134.3,122.816667 133.466667,122.6 C132.833333,122.45 132.25,122.283333 131.666667,122.116667 Z M161.95,117.633333 C162.416667,117.633333 162.866667,117.65 163.333333,117.65 L163.333333,125.966667 C161.083333,125.95 158.866667,125.883333 156.666667,125.783333 L156.666667,117.466667 C158.333333,117.55 160.016667,117.6 161.7,117.633333 C161.783333,117.633333 161.866667,117.633333 161.95,117.633333 Z M168.3,117.633333 C169.983333,117.6 171.65,117.55 173.333333,117.466667 L173.333333,125.783333 C173.05,125.8 172.783333,125.816667 172.5,125.833333 C172.483333,125.833333 172.45,125.833333 172.433333,125.833333 C171.316667,125.883333 170.183333,125.916667 169.016667,125.95 C168.833333,125.95 168.65,125.95 168.483333,125.966667 C167.883333,125.983333 167.283333,125.983333 166.683333,125.983333 L166.683333,117.666667 C167.133333,117.666667 167.6,117.65 168.066667,117.65 C168.133333,117.633333 168.216667,117.633333 168.3,117.633333 Z M206.283333,118.466667 L206.233333,118.45 L205.633333,118.916667 C204.75,119.6 203.4,120.3 201.666667,120.966667 L201.666667,113.033333 C203.65,112.35 205.333333,111.583333 206.666667,110.733333 L206.666667,117.633333 C206.666667,117.916667 206.533333,118.183333 206.283333,118.466667 Z M185,124.75 L185,116.516667 C186.716667,116.316667 188.383333,116.066667 190,115.816667 L190,123.983333 C188.416667,124.266667 186.75,124.516667 185,124.75 Z M193.333333,123.35 L193.333333,115.233333 C195.1,114.883333 196.783333,114.5 198.333333,114.083333 L198.333333,122.116667 C196.833333,122.533333 195.166667,122.95 193.333333,123.35 Z M181.666667,116.883333 L181.666667,125.15 C180.05,125.316667 178.383333,125.466667 176.666667,125.583333 L176.666667,117.283333 C178.35,117.166667 180.033333,117.033333 181.666667,116.883333 Z M148.333333,125.15 L148.333333,116.883333 C149.966667,117.05 151.65,117.183333 153.333333,117.283333 L153.333333,125.583333 C151.633333,125.466667 149.966667,125.316667 148.333333,125.15 Z M145,116.516667 L145,124.75 C144.666667,124.7 144.333333,124.666667 144,124.633333 C143.783333,124.6 143.583333,124.566667 143.366667,124.55 C142.4,124.416667 141.466667,124.266667 140.533333,124.1 C140.35,124.066667 140.166667,124.033333 139.983333,124 L139.983333,115.816667 C141.616667,116.083333 143.283333,116.316667 145,116.516667 Z M162.916667,145.566667 C162.683333,145.55 162.466667,145.533333 162.25,145.516667 C161.183333,145.433333 160.15,145.333333 159.133333,145.233333 C158.916667,145.216667 158.7,145.183333 158.483333,145.166667 C158.433333,145.166667 158.4,145.15 158.35,145.15 L158.35,136.866667 C159.983333,137.033333 161.666667,137.166667 163.35,137.266667 L163.35,145.566667 C163.2,145.583333 163.05,145.583333 162.916667,145.566667 Z M151.9,144.316667 C151.233333,144.216667 150.616667,144.1 150,143.983333 L150,135.816667 C151.616667,136.083333 153.283333,136.316667 155,136.516667 L155,144.766667 C153.983333,144.633333 152.983333,144.5 152.016667,144.333333 C151.983333,144.333333 151.95,144.333333 151.9,144.316667 Z M146.666667,135.216667 L146.666667,143.333333 C144.833333,142.933333 143.15,142.516667 141.666667,142.083333 L141.666667,134.066667 C143.216667,134.483333 144.9,134.866667 146.666667,135.216667 Z M138.333333,133.05 L138.333333,140.966667 C135.716667,139.95 134.016667,138.916667 133.466667,138 L133.35,137.816667 C133.35,137.766667 133.333333,137.716667 133.333333,137.666667 L133.333333,130.766667 C134.666667,131.6 136.35,132.366667 138.333333,133.05 Z M178.3,137.633333 C179.983333,137.6 181.65,137.55 183.333333,137.466667 L183.333333,145.783333 C181.15,145.883333 178.916667,145.95 176.666667,145.966667 L176.666667,137.65 C177.116667,137.65 177.583333,137.633333 178.05,137.633333 C178.133333,137.633333 178.216667,137.633333 178.3,137.633333 Z M199.85,144.033333 C199.116667,144.166667 198.383333,144.283333 197.616667,144.4 C197.183333,144.466667 196.733333,144.533333 196.283333,144.6 C195.866667,144.666667 195.416667,144.716667 195,144.766667 L195,136.533333 C196.716667,136.333333 198.383333,136.083333 200,135.833333 L200,144.016667 C199.95,144.016667 199.9,144.016667 199.85,144.033333 Z M188.566667,145.45 C187.95,145.5 187.3,145.533333 186.666667,145.583333 L186.666667,137.283333 C188.35,137.166667 190.033333,137.033333 191.666667,136.883333 L191.666667,145.15 C190.7,145.25 189.733333,145.35 188.733333,145.433333 C188.683333,145.433333 188.616667,145.45 188.566667,145.45 Z M207.6,142.333333 C206.766667,142.566667 205.883333,142.783333 205,143 C204.583333,143.1 204.166667,143.2 203.733333,143.283333 C203.6,143.316667 203.466667,143.333333 203.333333,143.366667 L203.333333,135.233333 C205.1,134.883333 206.783333,134.5 208.333333,134.083333 L208.333333,142.133333 C208.1,142.183333 207.85,142.266667 207.6,142.333333 Z M216.65,126.1 C216.5,127.233333 213.933333,128.733333 209.35,130.15 C209.35,130.15 209.35,130.15 209.35,130.15 C203.45,131.966667 194.233333,133.633333 182.533333,134.15 C181.933333,134.166667 181.333333,134.2 180.733333,134.216667 C180.233333,134.233333 179.733333,134.25 179.233333,134.266667 C177.85,134.316667 176.45,134.333333 175,134.333333 C173.55,134.333333 172.15,134.316667 170.783333,134.283333 C170.283333,134.266667 169.783333,134.25 169.283333,134.233333 C168.666667,134.216667 168.083333,134.183333 167.483333,134.166667 C155.783333,133.65 146.566667,131.983333 140.666667,130.166667 C140.666667,130.166667 140.666667,130.166667 140.666667,130.166667 C136.116667,128.766667 133.566667,127.266667 133.366667,126.15 C133.366667,126.116667 133.383333,126.083333 133.4,126.05 C133.516667,126.083333 133.633333,126.1 133.75,126.133333 C134.4,126.283333 135.066667,126.433333 135.75,126.583333 C139.066667,127.3 142.733333,127.883333 146.65,128.333333 C146.666667,128.333333 146.666667,128.333333 146.683333,128.333333 C146.683333,128.333333 146.683333,128.333333 146.683333,128.333333 C149.35,128.633333 152.116667,128.866667 154.95,129.05 C154.966667,129.05 154.983333,129.066667 155.016667,129.066667 C155.033333,129.066667 155.033333,129.066667 155.05,129.066667 C157.1,129.183333 159.166667,129.283333 161.25,129.316667 C162.516667,129.316667 163.783333,129.333333 165,129.333333 C165.883333,129.333333 166.766667,129.316667 167.683333,129.3 C179.8,129.116667 191.016667,127.666667 198.833333,125.433333 C199.2,125.333333 199.55,125.233333 199.883333,125.116667 C200.1,125.05 200.316667,124.983333 200.516667,124.916667 C201.116667,124.716667 201.7,124.516667 202.25,124.316667 C202.35,124.283333 202.433333,124.25 202.533333,124.2 C203,124.016667 203.45,123.833333 203.9,123.65 C204.033333,123.6 204.15,123.533333 204.283333,123.483333 C204.75,123.266667 205.183333,123.066667 205.6,122.833333 C205.783333,122.733333 205.95,122.633333 206.116667,122.533333 C206.316667,122.416667 206.516667,122.3 206.7,122.183333 C206.8,122.116667 206.933333,122.05 207.033333,121.983333 C214.483333,123.65 216.466667,125.416667 216.65,126.1 Z M165,99.3333333 C192.483333,99.3333333 206.383333,103.666667 206.65,106.15 C206.45,107.283333 203.883333,108.766667 199.366667,110.166667 C199.366667,110.166667 199.366667,110.166667 199.366667,110.166667 C193.466667,111.983333 184.25,113.65 172.55,114.166667 C171.95,114.183333 171.35,114.216667 170.75,114.233333 C170.25,114.25 169.75,114.266667 169.25,114.283333 C167.85,114.316667 166.45,114.333333 165,114.333333 C163.55,114.333333 162.15,114.316667 160.783333,114.283333 C160.283333,114.266667 159.783333,114.25 159.283333,114.233333 C158.666667,114.216667 158.083333,114.183333 157.483333,114.166667 C145.766667,113.65 136.55,111.983333 130.65,110.166667 C130.65,110.166667 130.65,110.166667 130.65,110.166667 C126.116667,108.766667 123.566667,107.266667 123.35,106.15 C123.616667,103.666667 137.516667,99.3333333 165,99.3333333 Z M123.333333,117.666667 L123.333333,110.766667 C124.666667,111.6 126.35,112.366667 128.333333,113.066667 L128.333333,121.05 C125.1,119.816667 123.333333,118.6 123.333333,117.666667 Z M131.4,140.716667 C131.433333,140.75 131.466667,140.766667 131.483333,140.8 C133.766667,143.1 138.483333,144.916667 144.366667,146.266667 C144.5,146.3 144.65,146.333333 144.783333,146.366667 C145.216667,146.466667 145.65,146.55 146.1,146.65 C151.5,147.8 157.95,148.633333 164.983333,149.05 C164.983333,149.05 164.983333,149.05 165,149.05 C165,149.05 165,149.05 165,149.05 C167.25,149.183333 169.566667,149.266667 171.916667,149.316667 C172.966667,149.316667 174,149.333333 175,149.333333 C176.15,149.333333 177.333333,149.316667 178.533333,149.283333 C180.716667,149.233333 182.866667,149.15 184.983333,149.016667 C184.983333,149.016667 185,149.016667 185,149.016667 C185.016667,149.016667 185.033333,149.016667 185.05,149 C192.1,148.583333 198.7,147.75 204.283333,146.533333 C203.066667,147.166667 201.416667,147.816667 199.35,148.466667 C199.35,148.466667 199.35,148.466667 199.35,148.466667 C193.116667,150.383333 183.183333,152.133333 170.55,152.55 C170.166667,152.566667 169.8,152.583333 169.416667,152.583333 C169,152.6 168.6,152.6 168.183333,152.6 C167.133333,152.65 166.083333,152.666667 165,152.666667 C163.55,152.666667 162.15,152.65 160.783333,152.616667 C160.283333,152.6 159.783333,152.583333 159.283333,152.566667 C158.666667,152.55 158.083333,152.516667 157.483333,152.5 C145.783333,151.983333 136.566667,150.316667 130.666667,148.5 C130.666667,148.5 130.666667,148.5 130.666667,148.5 C126.083333,147.083333 123.516667,145.583333 123.366667,144.45 C123.533333,143.816667 125.216667,142.233333 131.4,140.716667 Z M123.333333,156 L123.333333,149.1 C124.666667,149.933333 126.35,150.7 128.333333,151.4 L128.333333,159.333333 L127.383333,158.966667 L127.366667,158.983333 C124.75,157.9 123.333333,156.833333 123.333333,156 Z M128.333333,174.333333 L128.333333,167.433333 C129.666667,168.266667 131.35,169.033333 133.333333,169.733333 L133.333333,177.716667 C130.1,176.483333 128.333333,175.266667 128.333333,174.333333 Z M206.666667,177.7 L206.666667,169.716667 C208.65,169.033333 210.333333,168.266667 211.666667,167.416667 L211.666667,174.316667 C211.666667,175.266667 209.9,176.483333 206.666667,177.7 Z M211.65,162.8 C211.466667,163.933333 208.916667,165.416667 204.35,166.833333 C204.35,166.833333 204.35,166.833333 204.35,166.833333 C198.45,168.65 189.233333,170.316667 177.533333,170.833333 C176.933333,170.85 176.333333,170.883333 175.733333,170.9 C175.233333,170.916667 174.733333,170.933333 174.233333,170.95 C172.85,170.983333 171.45,171 170,171 C168.55,171 167.15,170.983333 165.766667,170.95 C165.266667,170.933333 164.766667,170.916667 164.283333,170.9 C163.666667,170.883333 163.066667,170.85 162.466667,170.833333 C150.766667,170.316667 141.55,168.65 135.65,166.833333 C135.65,166.833333 135.65,166.833333 135.65,166.833333 C131.25,165.466667 128.7,164.016667 128.383333,162.916667 C128.883333,163.083333 129.4,163.266667 129.916667,163.416667 C129.966667,163.433333 130.016667,163.45 130.083333,163.466667 C130.533333,163.6 131,163.733333 131.466667,163.866667 C131.65,163.916667 131.816667,163.966667 132,164.016667 C132.266667,164.083333 132.533333,164.15 132.816667,164.233333 C138.883333,165.783333 146.633333,166.883333 155,167.383333 C155,167.383333 155,167.383333 155,167.383333 C155,167.383333 155,167.383333 155,167.383333 C157.583333,167.533333 160.216667,167.633333 162.883333,167.666667 C163.6,167.666667 164.316667,167.666667 165,167.666667 C165.916667,167.666667 166.866667,167.65 167.816667,167.633333 C170.25,167.6 172.65,167.5 175,167.366667 C175,167.366667 175,167.366667 175.016667,167.366667 C175.016667,167.366667 175.033333,167.366667 175.033333,167.366667 C177.883333,167.2 180.666667,166.95 183.316667,166.65 C183.333333,166.65 183.333333,166.65 183.35,166.65 C183.383333,166.65 183.416667,166.633333 183.45,166.633333 C186.416667,166.283333 189.216667,165.866667 191.816667,165.383333 C192.35,165.283333 192.883333,165.183333 193.4,165.083333 C193.516667,165.066667 193.633333,165.033333 193.75,165.016667 C198.666667,164 202.933333,162.7 205.85,161.083333 C206.016667,161 206.166667,160.9 206.316667,160.816667 C206.5,160.7 206.683333,160.6 206.85,160.483333 C207.016667,160.383333 207.2,160.283333 207.35,160.166667 C210.633333,161.333333 211.533333,162.383333 211.65,162.8 Z M211.666667,141.033333 L211.666667,133.05 C213.65,132.366667 215.333333,131.6 216.666667,130.75 L216.666667,137.65 C216.666667,138.6 214.9,139.816667 211.666667,141.033333 Z" id="Shape"></path>
            </g>
        </g>
    </g>
</svg>