<?xml version="1.0" encoding="UTF-8"?>
<svg width="128px" height="94px" viewBox="0 0 128 94" version="1.1" xmlns="http://www.w3.org/2000/svg" xmlns:xlink="http://www.w3.org/1999/xlink">
    <title>fmint</title>
    <g id="10-DeFi" stroke="none" stroke-width="1" fill="none" fill-rule="evenodd">
        <g id="fmint" transform="translate(2.000000, 2.000000)">
            <g id="Group" transform="translate(36.961607, 24.859133)">
                <path d="M86.5457688,23.8549564 C86.5457688,23.8549564 86.5457688,42.2278194 86.5457688,42.7806082 C86.5457688,47.6052428 83.5397761,52.0602614 78.4338407,55.7040871 C74.734409,58.3437347 69.9457545,60.5483474 64.3753458,62.1282109 C60.0936871,63.3711677 55.3442838,64.2379663 50.3168511,64.6468336 C48.0337358,64.8529029 45.6786598,64.9510309 43.2876037,64.9510309 C40.8965474,64.9510309 38.5414714,64.8529029 36.2583561,64.6468336 C31.2309234,64.2346956 26.4815202,63.3711677 22.1998614,62.1282109 C16.6294527,60.5483474 11.8407983,58.3437347 8.14136658,55.7040871 C3.03543117,52.0602614 0.0294384488,47.6052428 0.0294384488,42.7806082 C0.0294384488,42.2278194 0.0294384488,23.8549564 0.0294384488,23.8549564 L0.147192244,23.8549564 C0.732690283,28.0515708 3.60784545,31.9210914 8.13809564,35.1560498 C11.8375274,37.7956974 16.6261818,40.0003101 22.1965905,41.5801736 C26.4782493,42.8231304 31.2276524,43.689929 36.2550854,44.0987963 C38.5382004,44.3048656 40.8932763,44.4029936 43.2843327,44.4029936 C45.6753888,44.4029936 48.0304647,44.3048656 50.3135801,44.0987963 C55.341013,43.6866583 60.0904161,42.8231304 64.372075,41.5801736 C69.9424837,40.0003101 74.731138,37.7956974 78.4305697,35.1560498 C82.9608199,31.9210914 85.839246,28.0515708 86.4214732,23.8549564 L86.5457688,23.8549564 Z" id="Path" fill="#FFFFFF" fill-rule="nonzero"></path>
                <path d="M86.5457688,23.8549564 C86.5457688,23.8549564 86.5457688,42.2278194 86.5457688,42.7806082 C86.5457688,47.6052428 83.5397761,52.0602614 78.4338407,55.7040871 C74.734409,58.3437347 69.9457545,60.5483474 64.3753458,62.1282109 C60.0936871,63.3711677 55.3442838,64.2379663 50.3168511,64.6468336 C48.0337358,64.8529029 45.6786598,64.9510309 43.2876037,64.9510309 C40.8965474,64.9510309 38.5414714,64.8529029 36.2583561,64.6468336 C31.2309234,64.2346956 26.4815202,63.3711677 22.1998614,62.1282109 C16.6294527,60.5483474 11.8407983,58.3437347 8.14136658,55.7040871 C3.03543117,52.0602614 0.0294384488,47.6052428 0.0294384488,42.7806082 C0.0294384488,42.2278194 0.0294384488,23.8549564 0.0294384488,23.8549564 L0.147192244,23.8549564 C0.732690283,28.0515708 3.60784545,31.9210914 8.13809564,35.1560498 C11.8375274,37.7956974 16.6261818,40.0003101 22.1965905,41.5801736 C26.4782493,42.8231304 31.2276524,43.689929 36.2550854,44.0987963 C38.5382004,44.3048656 40.8932763,44.4029936 43.2843327,44.4029936 C45.6753888,44.4029936 48.0304647,44.3048656 50.3135801,44.0987963 C55.341013,43.6866583 60.0904161,42.8231304 64.372075,41.5801736 C69.9424837,40.0003101 74.731138,37.7956974 78.4305697,35.1560498 C82.9608199,31.9210914 85.839246,28.0515708 86.4214732,23.8549564 L86.5457688,23.8549564 Z" id="Path" stroke="#1969FF" stroke-width="4"></path>
                <path d="M86.5457688,22.2325708 C86.5457688,22.7722757 86.5032466,23.3152515 86.428015,23.8549564 C85.842517,28.0515708 82.9673617,31.9210914 78.4371115,35.1560498 C74.7376797,37.7956974 69.9490255,40.0003101 64.3786168,41.5801736 C60.0969578,42.8231304 55.3475548,43.689929 50.3201218,44.0987963 C48.0370068,44.3048656 45.6819309,44.4029936 43.2908745,44.4029936 C40.8998184,44.4029936 38.5447425,44.3048656 36.2616271,44.0987963 C31.2341942,43.6866583 26.4847912,42.8231304 22.2031323,41.5801736 C16.6327236,40.0003101 11.8440693,37.7956974 8.14463752,35.1560498 C3.61438733,31.9210914 0.735961222,28.0515708 0.153734122,23.8549564 C0.0785025303,23.3152515 0.0359803265,22.7722757 0.0359803265,22.2325708 C0.0359803265,9.98944699 19.4064797,0.0621478365 43.2941455,0.0621478365 C67.1818112,0.0621478365 86.5457688,9.98944699 86.5457688,22.2325708 Z" id="Path" fill="#FFFFFF" fill-rule="nonzero"></path>
                <path d="M86.5457688,22.2325708 C86.5457688,22.7722757 86.5032466,23.3152515 86.428015,23.8549564 C85.842517,28.0515708 82.9673617,31.9210914 78.4371115,35.1560498 C74.7376797,37.7956974 69.9490255,40.0003101 64.3786168,41.5801736 C60.0969578,42.8231304 55.3475548,43.689929 50.3201218,44.0987963 C48.0370068,44.3048656 45.6819309,44.4029936 43.2908745,44.4029936 C40.8998184,44.4029936 38.5447425,44.3048656 36.2616271,44.0987963 C31.2341942,43.6866583 26.4847912,42.8231304 22.2031323,41.5801736 C16.6327236,40.0003101 11.8440693,37.7956974 8.14463752,35.1560498 C3.61438733,31.9210914 0.735961222,28.0515708 0.153734122,23.8549564 C0.0785025303,23.3152515 0.0359803265,22.7722757 0.0359803265,22.2325708 C0.0359803265,9.98944699 19.4064797,0.0621478365 43.2941455,0.0621478365 C67.1818112,0.0621478365 86.5457688,9.98944699 86.5457688,22.2325708 Z" id="Path" stroke="#1969FF" stroke-width="4"></path>
            </g>
            <g id="Group">
                <path d="M82.5552236,9.99271793 C82.5552236,9.99271793 91.4685317,26.9950577 91.7334776,27.505324 C94.0721989,31.9668846 93.4507205,37.5503769 90.4970628,43.3988155 C88.354598,47.6346812 84.9920729,51.9981136 80.6024729,56.1620187 C77.2432189,59.3904353 73.2690283,62.494556 68.8140098,65.3141053 C66.8023823,66.6093971 64.6664595,67.8458118 62.4553048,69.0037242 C60.2441501,70.1616366 58.0133701,71.2148789 55.8054864,72.1340126 C50.951413,74.191433 46.1398622,75.6960649 41.5736318,76.6217405 C35.6532326,77.8614263 30.1515134,78.142727 25.4479036,77.4950812 C18.9583611,76.5988439 14.0127017,73.9330289 11.6739804,69.4714683 C11.4057635,68.961202 2.49572628,51.9588624 2.49572628,51.9588624 L2.60693819,51.8999853 C5.18116702,55.4980181 9.72123001,57.6862762 15.4846241,58.4811142 C20.1882341,59.1287599 25.6899531,58.8474593 31.6103523,57.6077735 C36.1765827,56.6820978 40.9881336,55.180737 45.8422069,53.1200455 C48.0533614,52.2041826 50.2808706,51.1509403 52.4920253,49.9897572 C54.7031798,48.8318448 56.8391029,47.59543 58.8507303,46.3001382 C63.3057489,43.4805889 67.2766685,40.3764682 70.6391935,37.1480516 C75.0255225,32.9841465 78.3913185,28.6207142 80.5337834,24.3848485 C83.1570761,19.1938687 83.9421016,14.2187708 82.4472825,10.0515948 L82.5552236,9.99271793 Z" id="Path" fill="#FFFFFF" fill-rule="nonzero"></path>
                <path d="M82.5552236,9.99271793 C82.5552236,9.99271793 91.4685317,26.9950577 91.7334776,27.505324 C94.0721989,31.9668846 93.4507205,37.5503769 90.4970628,43.3988155 C88.354598,47.6346812 84.9920729,51.9981136 80.6024729,56.1620187 C77.2432189,59.3904353 73.2690283,62.494556 68.8140098,65.3141053 C66.8023823,66.6093971 64.6664595,67.8458118 62.4553048,69.0037242 C60.2441501,70.1616366 58.0133701,71.2148789 55.8054864,72.1340126 C50.951413,74.191433 46.1398622,75.6960649 41.5736318,76.6217405 C35.6532326,77.8614263 30.1515134,78.142727 25.4479036,77.4950812 C18.9583611,76.5988439 14.0127017,73.9330289 11.6739804,69.4714683 C11.4057635,68.961202 2.49572628,51.9588624 2.49572628,51.9588624 L2.60693819,51.8999853 C5.18116702,55.4980181 9.72123001,57.6862762 15.4846241,58.4811142 C20.1882341,59.1287599 25.6899531,58.8474593 31.6103523,57.6077735 C36.1765827,56.6820978 40.9881336,55.180737 45.8422069,53.1200455 C48.0533614,52.2041826 50.2808706,51.1509403 52.4920253,49.9897572 C54.7031798,48.8318448 56.8391029,47.59543 58.8507303,46.3001382 C63.3057489,43.4805889 67.2766685,40.3764682 70.6391935,37.1480516 C75.0255225,32.9841465 78.3913185,28.6207142 80.5337834,24.3848485 C83.1570761,19.1938687 83.9421016,14.2187708 82.4472825,10.0515948 L82.5552236,9.99271793 Z" id="Path" stroke="#1969FF" stroke-width="4"></path>
                <path d="M81.7669274,8.49135703 C82.0286024,8.99181066 82.2510263,9.51188992 82.4440115,10.0515948 C83.9388306,14.2187708 83.1538054,19.1938687 80.5305123,24.3848485 C78.3880475,28.6207142 75.0255225,32.9841465 70.6359227,37.1480516 C67.2766685,40.3764682 63.3024778,43.4805889 58.8474593,46.3001382 C56.8358321,47.59543 54.699909,48.8318448 52.4887543,49.9897572 C50.2775999,51.1476695 48.0468196,52.2009119 45.8389359,53.1200455 C40.9848628,55.1774659 36.1733117,56.6820978 31.6070813,57.6077735 C25.6866821,58.8474593 20.1849631,59.1287599 15.4813532,58.4811142 C9.72123001,57.6862762 5.18116702,55.4980181 2.60366726,51.8999853 C2.2700315,51.435512 1.96910514,50.9579551 1.70743003,50.4575013 C-4.22932382,39.1302404 8.87732781,20.5480373 30.9823319,8.96237221 C53.0873361,-2.62329289 75.8301733,-2.83590391 81.7669274,8.49135703 Z" id="Path" fill="#FFFFFF" fill-rule="nonzero"></path>
                <path d="M81.7669274,8.49135703 C82.0286024,8.99181066 82.2510263,9.51188992 82.4440115,10.0515948 C83.9388306,14.2187708 83.1538054,19.1938687 80.5305123,24.3848485 C78.3880475,28.6207142 75.0255225,32.9841465 70.6359227,37.1480516 C67.2766685,40.3764682 63.3024778,43.4805889 58.8474593,46.3001382 C56.8358321,47.59543 54.699909,48.8318448 52.4887543,49.9897572 C50.2775999,51.1476695 48.0468196,52.2009119 45.8389359,53.1200455 C40.9848628,55.1774659 36.1733117,56.6820978 31.6070813,57.6077735 C25.6866821,58.8474593 20.1849631,59.1287599 15.4813532,58.4811142 C9.72123001,57.6862762 5.18116702,55.4980181 2.60366726,51.8999853 C2.2700315,51.435512 1.96910514,50.9579551 1.70743003,50.4575013 C-4.22932382,39.1302404 8.87732781,20.5480373 30.9823319,8.96237221 C53.0873361,-2.62329289 75.8301733,-2.83590391 81.7669274,8.49135703 Z" id="Path" stroke="#1969FF" stroke-width="4"></path>
            </g>
        </g>
    </g>
</svg>