<?xml version="1.0" encoding="UTF-8"?>
<svg width="137px" height="96px" viewBox="0 0 137 96" version="1.1" xmlns="http://www.w3.org/2000/svg" xmlns:xlink="http://www.w3.org/1999/xlink">
    <title>fMint</title>
    <g id="10-DeFi" stroke="none" stroke-width="1" fill="none" fill-rule="evenodd">
        <g id="DeFi-03" transform="translate(-319.000000, -402.000000)" fill-rule="nonzero" stroke="#1969FF" stroke-width="3">
            <path d="M454.5,459.447185 L454.5,470.682444 C454.5,474.057458 453.190455,477.432806 450.616203,480.592898 C448.199025,483.560169 444.649953,486.348427 440.058832,488.753047 C431.105968,493.456991 418.417198,496.499934 404.389035,496.499934 C390.360873,496.499934 377.672102,493.456991 368.711967,488.749201 C368.106071,488.426604 367.868129,488.299645 367.629824,488.159766 L367.629824,488.159766 L364.489269,486.316336 L368.017067,485.413032 C374.139751,483.8453 380.507925,481.451211 386.849184,478.23328 C386.999356,478.157074 387.149163,478.080583 387.298499,478.004426 L387.298499,478.004426 L387.792448,478.094406 C393.014768,479.029838 398.592577,479.524365 404.389035,479.524365 C418.587913,479.524365 431.458097,476.553806 440.997783,471.562196 C447.070622,468.377195 451.888673,464.237362 454.5,459.447185 L454.5,459.447185 Z M414.468248,419.667731 L419.664225,429.684803 C421.215403,432.667443 421.598283,436.259767 420.766069,440.246683 C419.981982,444.003038 418.109624,448.127062 415.150293,452.389411 C409.37063,460.742427 399.524172,469.340069 387.058455,475.839903 C374.617634,482.370056 361.975704,485.543088 351.861415,485.543088 C346.77198,485.543088 342.40762,484.747339 338.931197,483.285136 C335.226435,481.726893 332.50823,479.409577 330.908895,476.492634 L330.908895,476.492634 L325.608941,466.234871 C330.122996,469.336906 336.288147,470.747708 343.139219,470.747708 C353.879029,470.747708 366.657302,467.409876 379.249786,460.800056 C391.841541,454.218042 401.91304,445.592421 408.073957,436.732237 C412.015601,431.060862 414.402882,425.192938 414.468248,419.667731 L414.468248,419.667731 Z M420.560418,427.268695 C421.588761,427.447389 422.628528,427.649912 423.677829,427.876511 C429.906722,429.221652 435.479515,431.200941 440.057106,433.604162 C444.649953,436.009688 448.199025,438.797946 450.616203,441.765217 C453.190455,444.925309 454.5,448.300657 454.5,451.675671 C454.5,455.050685 453.190455,458.426033 450.616203,461.586125 C448.199025,464.553396 444.649953,467.341654 440.058832,469.746274 C431.105968,474.450218 418.417198,477.49316 404.389035,477.49316 C401.055774,477.49316 397.779029,477.322334 394.643513,476.981243 C393.217374,476.826103 391.770275,476.630281 390.312111,476.394506 C391.548743,475.703284 392.784473,474.976295 394.016831,474.214251 C403.766208,468.185605 411.647076,460.987987 416.797468,453.556932 C422.385243,445.543321 424.921101,436.982981 421.976686,429.919878 C421.587608,428.986552 421.112602,428.102795 420.560418,427.268695 Z M389.833523,403.5 C395.003098,403.5 399.425718,404.327883 402.930517,405.838127 C406.669392,407.449236 409.386289,409.838854 410.946269,412.83848 C412.485166,415.842582 412.870403,419.452072 412.036415,423.452765 C411.254447,427.203913 409.391074,431.31606 406.42673,435.5648 C400.647839,443.888193 390.80266,452.484612 378.333869,459.01457 C365.892366,465.516563 353.249639,468.717052 343.141997,468.688736 C337.967984,468.688736 333.537707,467.865297 330.02846,466.358002 C326.291909,464.753075 323.576953,462.370869 322.025363,459.378539 C320.479705,456.379235 320.097152,452.776876 320.930563,448.783974 C321.714704,445.027127 323.584987,440.907332 326.548206,436.649818 C332.338426,428.297922 342.188977,419.729656 354.637726,413.199805 C367.107357,406.669406 379.74985,403.482965 389.833523,403.5 Z" id="fMint"></path>
        </g>
    </g>
</svg>