<?xml version="1.0" encoding="UTF-8"?>
<svg width="90px" height="94px" viewBox="0 0 90 94" version="1.1" xmlns="http://www.w3.org/2000/svg" xmlns:xlink="http://www.w3.org/1999/xlink">
    <title>Group</title>
    <g id="10-DeFi" stroke="none" stroke-width="1" fill="none" fill-rule="evenodd">
        <g id="DeFi-03" transform="translate(-900.000000, -270.000000)" fill="#1969FF">
            <g id="fTrade-Copy-2" transform="translate(770.000000, 177.000000)">
                <g id="Group" transform="translate(132.000000, 24.000000)">
                    <g transform="translate(0.000000, 73.000000)" id="Path">
                        <path d="M83.8864865,20.0375 L72.1945946,0.0125 L60.6162162,20.0375 L67.7675676,20.0375 L67.7675676,49.9625 C67.7675676,65.9375 54.6,78.9875 38.4810811,78.9875 C22.3621622,78.9875 9.19459459,65.9375 9.19459459,49.9625 C9.19459459,33.9875 22.3621622,20.9375 38.4810811,20.9375 C40.9783784,20.9375 43.0216216,18.9125 43.0216216,16.4375 C43.0216216,13.9625 40.9783784,11.9375 38.4810811,11.9375 C17.3675676,11.9375 0.113513514,28.925 0.113513514,49.9625 C0.113513514,71 17.2540541,87.9875 38.4810811,87.9875 C59.7081081,87.9875 76.8486486,71 76.8486486,49.9625 L76.8486486,20.0375 L83.8864865,20.0375 Z" stroke="#FFFFFF" stroke-width="4"></path>
                        <path d="M39.5027027,39.05 C42.9081081,39.05 45.0648649,40.175 46.3135135,40.625 L47.6756757,35.3375 C46.0864865,34.55 44.0432432,33.9875 40.8648649,33.7625 L40.8648649,29.6 L36.2108108,29.6 L36.2108108,34.1 C31.1027027,35.1125 28.2648649,38.2625 28.2648649,42.425 C28.2648649,46.925 31.6702703,49.2875 36.7783784,50.975 C40.2972973,52.1 41.772973,53.225 41.772973,55.025 C41.772973,56.9375 39.9567568,57.95 37.2324324,57.95 C34.1675676,57.95 31.3297297,56.9375 29.4,55.925 L28.0378378,61.4375 C29.8540541,62.45 32.9189189,63.35 36.0972973,63.4625 L36.0972973,67.9625 L40.7513514,67.9625 L40.7513514,63.125 C46.2,62.225 49.1513514,58.625 49.1513514,54.4625 C49.1513514,50.3 46.8810811,47.7125 41.2054054,45.6875 C37.2324324,44.225 35.5297297,43.2125 35.5297297,41.6375 C35.4162162,40.2875 36.4378378,39.05 39.5027027,39.05 Z"></path>
                    </g>
                </g>
            </g>
        </g>
    </g>
</svg>