<svg width="356" height="320" viewBox="0 0 356 320" fill="none" xmlns="http://www.w3.org/2000/svg">
<path fill-rule="evenodd" clip-rule="evenodd" d="M237.642 40.2973H98.0996V23H246.85V29.1568L259.748 36.6033L193.701 151H323.884V161.174L331.631 165.646L255.418 297.652L240.438 289.003L310.127 168.297H183.969L110.786 295.054L106.211 292.412L100.136 295.92L23.9229 163.915L38.9028 155.266L105.211 270.115L168.745 160.07L168.555 159.96L237.642 40.2973Z" fill="#126685"/>
<path fill-rule="evenodd" clip-rule="evenodd" d="M103.054 64C120.727 64 135.054 49.6731 135.054 32C135.054 14.3269 120.727 0 103.054 0C85.3806 0 71.0537 14.3269 71.0537 32C71.0537 49.6731 85.3806 64 103.054 64ZM177.43 192C195.103 192 209.43 177.673 209.43 160C209.43 142.327 195.103 128 177.43 128C159.757 128 145.43 142.327 145.43 160C145.43 177.673 159.757 192 177.43 192Z" fill="#0059FF"/>
<path fill-rule="evenodd" clip-rule="evenodd" d="M281.259 32C281.259 49.6731 266.932 64 249.259 64C231.586 64 217.259 49.6731 217.259 32C217.259 14.3269 231.586 0 249.259 0C266.932 0 281.259 14.3269 281.259 32ZM356 160C356 177.673 341.673 192 324 192C306.327 192 292 177.673 292 160C292 142.327 306.327 128 324 128C341.673 128 356 142.327 356 160ZM105.376 320C123.049 320 137.376 305.673 137.376 288C137.376 270.327 123.049 256 105.376 256C87.7032 256 73.3763 270.327 73.3763 288C73.3763 305.673 87.7032 320 105.376 320ZM64 160C64 177.673 49.6731 192 32 192C14.3269 192 0 177.673 0 160C0 142.327 14.3269 128 32 128C49.6731 128 64 142.327 64 160ZM251.805 320C269.478 320 283.805 305.673 283.805 288C283.805 270.327 269.478 256 251.805 256C234.132 256 219.805 270.327 219.805 288C219.805 305.673 234.132 320 251.805 320Z" fill="#19E1FF"/>
</svg>
