<svg width="264" height="284" viewBox="0 0 264 284" fill="none" xmlns="http://www.w3.org/2000/svg">
<path fill-rule="evenodd" clip-rule="evenodd" d="M31.9004 98.3997C31.9004 93.9814 35.4821 90.3997 39.9004 90.3997H69.0004C73.4187 90.3997 77.0004 93.9814 77.0004 98.3997V236.4C77.0004 240.818 73.4187 244.4 69.0004 244.4H39.9004C35.4821 244.4 31.9004 240.818 31.9004 236.4V98.3997ZM110.001 98.3997C110.001 93.9814 113.583 90.3997 118.001 90.3997H147.101C151.52 90.3997 155.101 93.9814 155.101 98.3997V236.4C155.101 240.818 151.52 244.4 147.101 244.4H118.001C113.583 244.4 110.001 240.818 110.001 236.4V98.3997ZM196.099 90.3997C191.681 90.3997 188.099 93.9814 188.099 98.3997V236.4C188.099 240.818 191.681 244.4 196.099 244.4H225.199C229.617 244.4 233.199 240.818 233.199 236.4V98.3997C233.199 93.9814 229.617 90.3997 225.199 90.3997H196.099Z" fill="#19E1FF"/>
<path fill-rule="evenodd" clip-rule="evenodd" d="M6.08385 69.5597C2.32386 71.6904 0 75.6782 0 80V109.007C0 113.425 3.58171 117.007 7.99999 117.007H256C260.418 117.007 264 113.425 264 109.007V80C264 75.6783 261.676 71.6904 257.916 69.5597L137.916 1.55973C134.246 -0.519909 129.754 -0.519912 126.084 1.55973L6.08385 69.5597ZM12 226.8C5.37258 226.8 0 232.173 0 238.8V276C0 280.419 3.58171 284 7.99999 284H256C260.418 284 264 280.419 264 276V238.8C264 232.173 258.627 226.8 252 226.8H132H12Z" fill="#0059FF"/>
</svg>
