<svg width="305" height="294" viewBox="0 0 305 294" fill="none" xmlns="http://www.w3.org/2000/svg">
<path fill-rule="evenodd" clip-rule="evenodd" d="M269 51C269 59.8366 261.82 67 252.962 67H51.038C42.1804 67 35 59.8366 35 51C35 42.1634 42.1804 35 51.038 35H252.962C261.82 35 269 42.1634 269 51ZM269 147C269 155.837 261.82 163 252.962 163H51.038C42.1804 163 35 155.837 35 147C35 138.163 42.1804 131 51.038 131H252.962C261.82 131 269 138.163 269 147ZM252.962 259C261.82 259 269 251.837 269 243C269 234.163 261.82 227 252.962 227H51.038C42.1804 227 35 234.163 35 243C35 251.837 42.1804 259 51.038 259H252.962Z" fill="#148FAD"/>
<path fill-rule="evenodd" clip-rule="evenodd" d="M304.004 51C304.004 79.1665 281.17 102 253.002 102C224.834 102 202 79.1665 202 51C202 22.8335 224.834 0 253.002 0C281.17 0 304.004 22.8335 304.004 51ZM102.004 147C102.004 175.167 79.1697 198 51.0021 198C22.8344 198 0 175.167 0 147C0 118.833 22.8344 96 51.0021 96C79.1697 96 102.004 118.833 102.004 147ZM253.002 294C281.17 294 304.004 271.167 304.004 243C304.004 214.833 281.17 192 253.002 192C224.834 192 202 214.833 202 243C202 271.167 224.834 294 253.002 294Z" fill="#0D1FFF"/>
<g style="mix-blend-mode:color-dodge">
<path d="M204.56 67C202.899 61.9678 202 56.5889 202 51C202 45.4111 202.899 40.0322 204.56 35H252.962C261.82 35 269 42.1634 269 51C269 59.8366 261.82 67 252.962 67H204.56Z" fill="#14DCFF"/>
<path d="M99.4438 163C101.105 157.968 102.004 152.589 102.004 147C102.004 141.411 101.105 136.032 99.4438 131H51.038C42.1804 131 35 138.163 35 147C35 155.837 42.1804 163 51.038 163H99.4438Z" fill="#14DCFF"/>
<path d="M204.56 259H252.962C261.82 259 269 251.837 269 243C269 234.163 261.82 227 252.962 227H204.56C202.899 232.032 202 237.411 202 243C202 248.589 202.899 253.968 204.56 259Z" fill="#14DCFF"/>
</g>
</svg>
