<svg width="300" height="300" viewBox="0 0 300 300" fill="none" xmlns="http://www.w3.org/2000/svg">
<circle cx="150" cy="150" r="150" fill="#0E17FF"/>
<path d="M13.2149 88.3476C17.3616 79.1619 22.4064 70.4687 28.2374 62.3799L75.3797 89.5975C69.0984 97.3476 64.0002 106.096 60.3597 115.567L13.2149 88.3476Z" fill="#097CFF"/>
<path d="M28.2373 237.62C22.4064 229.531 17.3616 220.838 13.2148 211.652L60.3597 184.433C64.0001 193.904 69.0984 202.652 75.3796 210.402L28.2373 237.62Z" fill="#097CFF"/>
<path d="M165 299.259C160.066 299.749 155.062 300 150 300C144.937 300 139.933 299.749 135 299.259V244.835C139.887 245.602 144.897 246 150 246C155.102 246 160.112 245.602 165 244.835V299.259Z" fill="#097CFF"/>
<path d="M286.785 211.652C282.638 220.838 277.593 229.531 271.762 237.62L224.62 210.402C230.901 202.652 235.999 193.904 239.64 184.433L286.785 211.652Z" fill="#097CFF"/>
<path d="M271.762 62.38C277.593 70.4688 282.638 79.1621 286.785 88.3478L239.64 115.567C235.999 106.096 230.901 97.3477 224.62 89.5976L271.762 62.38Z" fill="#097CFF"/>
<path d="M165 0.740639C160.066 0.250795 155.062 0 150 0C144.937 0 139.933 0.250788 135 0.740617V55.165C139.887 54.3981 144.897 54 150 54C155.102 54 160.112 54.3981 165 55.165V0.740639Z" fill="#097CFF"/>
<circle cx="150" cy="150" r="96" fill="#05D9FF"/>
</svg>
