<svg width="292" height="320" viewBox="0 0 292 320" fill="none" xmlns="http://www.w3.org/2000/svg">
<path d="M178.302 3.20984C204.049 -7.85102 232.714 11.0325 232.714 39.055L232.714 124.914H39.0192L38.9023 124.915C20.7982 124.862 5.59527 112.477 1.25163 95.7188C0.443459 98.8372 0.0146067 102.086 0.00599179 105.404C-0.0999937 100.529 1.23516 95.655 1.23516 95.655C1.24063 95.6763 1.24612 95.6975 1.25163 95.7188C4.2323 84.2173 12.3727 74.4924 23.6198 69.6607L178.302 3.20984Z" fill="#00DEFF"/>
<path d="M209.061 250.559L54.3781 316.807C46.2299 320.297 37.7925 320.79 30.0652 318.946C22.5905 317.191 15.9442 313.286 10.8142 307.919C4.11873 300.915 0.00628558 291.421 0.00628558 280.966L0.00608713 105.408C-0.100791 100.532 1.23516 95.655 1.23516 95.655C5.55674 112.446 20.7752 124.861 38.9023 124.915L39.0192 124.914H232.714L232.714 198.428C231.342 198.188 229.931 198.063 228.49 198.063C215.024 198.063 204.107 208.98 204.107 222.447C204.107 232.39 210.059 240.943 218.595 244.738C215.758 247.089 212.559 249.061 209.061 250.559Z" fill="#0073FF"/>
<path d="M209.061 250.559L54.378 316.807L39.019 319.979H252.987C274.533 319.979 292 302.512 292 280.966V163.927C292 142.381 274.533 124.914 252.987 124.914H232.714L232.714 198.361C244.237 200.359 253 210.406 253 222.5C253 236.031 242.031 247 228.5 247C224.921 247 221.52 246.232 218.455 244.853C215.653 247.153 212.502 249.085 209.061 250.559Z" fill="#034BD6"/>
</svg>
