<?xml version="1.0" encoding="UTF-8"?>
<!DOCTYPE svg  PUBLIC '-//W3C//DTD SVG 1.1//EN'  'http://www.w3.org/Graphics/SVG/1.1/DTD/svg11.dtd'>
<svg version="1.1" viewBox="0 0 32 32" xmlns="http://www.w3.org/2000/svg">
<path d="m32 16c0 8.837-7.163 16-16 16s-16-7.163-16-16 7.163-16 16-16 16 7.163 16 16z" fill="#ED8D2B"/>
<path d="m17.2 12.9 3.6-2.1v4.2zm3.6 9-4.8 2.8-4.8-2.8v-4.9l4.8 2.8 4.8-2.8zm-9.6-11.1 3.6 2.1-3.6 2.1zm5.4 3.1 3.6 2.1-3.6 2.1zm-1.2 4.2-3.6-2.1 3.6-2.1zm4.8-8.3-4.2 2.4-4.2-2.4 4.2-2.5zm-10.2-0.4v13.1l6 3.4 6-3.4v-13.1l-6-3.4z" fill="#fff"/>
</svg>
