<?xml version="1.0" encoding="UTF-8"?>
<svg width="50px" height="50px" viewBox="0 0 50 50" version="1.1" xmlns="http://www.w3.org/2000/svg" xmlns:xlink="http://www.w3.org/1999/xlink">
    <title>copy</title>
    <g id="icons" stroke="none" stroke-width="1" fill="none" fill-rule="evenodd">
        <g id="OUTLINED" transform="translate(-5.000000, -262.000000)" fill="#0B1823" fill-rule="nonzero">
            <g id="copy" transform="translate(6.000000, 263.000000)">
                <path d="M10.6,15.59 C11.1522847,15.59 11.6,16.0377153 11.6,16.59 C11.6,17.1028358 11.2139598,17.5255072 10.7166211,17.5832723 L10.6,17.59 L6.15338984,17.59 C3.53831178,17.598859 1.40713081,19.6596018 1.28545529,22.2434971 L1.28,22.46 L1.28,42.0466102 C1.288859,44.6616882 3.34960177,46.7928692 5.93349715,46.9145447 L6.15,46.92 L25.738308,46.9200014 C28.3565401,46.9155713 30.4925756,44.8536914 30.614532,42.2667602 L30.62,42.05 L30.62,38 C30.62,37.4477153 31.0677153,37 31.62,37 C32.1328358,37 32.5555072,37.3860402 32.6132723,37.8833789 L32.62,38 L32.62,42.0533942 C32.6073932,45.7659455 29.6599998,48.7854091 25.9761203,48.9156328 L25.74,48.92 L6.14661016,48.92 C2.43851506,48.9074243 -0.579061948,45.9668374 -0.715241932,42.2859355 L-0.72,42.05 L-0.72,22.4566102 C-0.707424332,18.7485151 2.23316256,15.7309381 5.91406448,15.5947581 L6.15,15.59 L10.6,15.59 Z" id="Path"></path>
                <path d="M41.4233841,-0.09 L21.88,-0.09 C18.0840979,-0.0771599234 15.0128401,2.99409785 15,6.7866159 L15,26.38 C15.0062121,30.1550864 18.0465647,33.2215141 21.8198146,33.26 L41.42,33.26 C45.2159021,33.2471599 48.2871599,30.1759021 48.3,26.3833841 L48.3,6.79 C48.2871599,2.99409785 45.2159021,-0.0771599234 41.4233841,-0.09 Z M21.8833841,1.90999427 L41.42,1.90999427 C44.1098533,1.91910852 46.2908915,4.10014665 46.3000057,6.7933841 L46.3000057,26.38 C46.2908915,29.0698533 44.1098533,31.2508915 41.4166159,31.2600057 L21.83,31.2600057 C19.1622185,31.2327743 17.0044066,29.0564563 16.9999986,26.3783541 L16.9999986,6.79 C17.0091085,4.10014665 19.1901467,1.91910852 21.8833841,1.90999427 Z" id="Path"></path>
            </g>
        </g>
    </g>
</svg>