<?xml version="1.0" encoding="UTF-8"?>
<svg width="38px" height="30px" viewBox="0 0 38 30" version="1.1" xmlns="http://www.w3.org/2000/svg" xmlns:xlink="http://www.w3.org/1999/xlink">
    <title>Shape</title>
    <g id="10-DeFi" stroke="none" stroke-width="1" fill="none" fill-rule="evenodd">
        <g id="DeFi-02" transform="translate(-31.000000, -541.000000)" fill="#1969FF">
            <g id="NAV">
                <g id="Group-11" transform="translate(0.000000, 541.000000)">
                    <g id="chart-network" transform="translate(31.000000, 0.000000)">
                        <g id="Shape">
                            <path d="M33.28125,21.5625 C32.1621094,21.5625 31.1542969,22.0078125 30.3984375,22.7167969 L25.8164063,20.0976562 C26.0800781,19.3828125 26.25,18.6210938 26.25,17.8125 C26.25,14.1855469 23.3144531,11.25 19.6875,11.25 C19.1953125,11.25 18.7148438,11.3144531 18.2578125,11.4199219 L16.3710938,7.37695313 C17.25,6.60351563 17.8125,5.484375 17.8125,4.22460938 C17.8125,1.89257813 15.9257813,0.005859375 13.59375,0.005859375 C11.2617188,0.005859375 9.375,1.89257813 9.375,4.22460938 C9.375,6.55664063 11.2617188,8.44335938 13.59375,8.44335938 C13.6464844,8.44335938 13.6992188,8.43164062 13.7519531,8.42578125 L15.7148438,12.6269531 C14.1503906,13.8222656 13.125,15.6914062 13.125,17.8125 C13.125,21.4394531 16.0605469,24.375 19.6875,24.375 C21.4863281,24.375 23.1210938,23.6484375 24.3046875,22.4707031 L29.1210938,25.2246094 C29.0976563,25.40625 29.0625,25.59375 29.0625,25.78125 C29.0625,28.1132812 30.9492188,30 33.28125,30 C35.6132812,30 37.5,28.1132812 37.5,25.78125 C37.5,23.4492188 35.6132812,21.5625 33.28125,21.5625 Z M13.59375,5.625 C12.8203125,5.625 12.1875,4.9921875 12.1875,4.21875 C12.1875,3.4453125 12.8203125,2.8125 13.59375,2.8125 C14.3671875,2.8125 15,3.4453125 15,4.21875 C15,4.9921875 14.3671875,5.625 13.59375,5.625 Z M19.6875,21.5625 C17.6191406,21.5625 15.9375,19.8808594 15.9375,17.8125 C15.9375,15.7441406 17.6191406,14.0625 19.6875,14.0625 C21.7558594,14.0625 23.4375,15.7441406 23.4375,17.8125 C23.4375,19.8808594 21.7558594,21.5625 19.6875,21.5625 Z M33.28125,27.1875 C32.5078125,27.1875 31.875,26.5546875 31.875,25.78125 C31.875,25.0078125 32.5078125,24.375 33.28125,24.375 C34.0546875,24.375 34.6875,25.0078125 34.6875,25.78125 C34.6875,26.5546875 34.0546875,27.1875 33.28125,27.1875 Z M30.09375,11.8828125 L28.96875,10.3828125 L26.15625,12.4921875 L27.28125,13.9921875 L30.09375,11.8828125 Z M33.75,11.25 C35.8183594,11.25 37.5,9.56835938 37.5,7.5 C37.5,5.43164062 35.8183594,3.75 33.75,3.75 C31.6816406,3.75 30,5.43164063 30,7.5 C30,9.56835938 31.6816406,11.25 33.75,11.25 Z M8.90625,18.75 L11.71875,18.75 L11.71875,16.875 L8.90625,16.875 L8.90625,18.75 Z M3.75,14.0625 C1.68164063,14.0625 0,15.7441406 0,17.8125 C0,19.8808594 1.68164062,21.5625 3.75,21.5625 C5.81835938,21.5625 7.5,19.8808594 7.5,17.8125 C7.5,15.7441406 5.81835938,14.0625 3.75,14.0625 Z"></path>
                        </g>
                    </g>
                </g>
            </g>
        </g>
    </g>
</svg>