<svg id="Component_3_1" data-name="Component 3 – 1" xmlns="http://www.w3.org/2000/svg" width="12.784" height="16" viewBox="0 0 12.784 16">
  <path id="Path_4" data-name="Path 4" d="M27.524,17.947a.787.787,0,0,0-1.115,0l-4.327,4.327V13A.794.794,0,1,0,20.5,13v9.19l-4.2-4.208a.794.794,0,0,0-1.121,1.121L20.772,24.7a.806.806,0,0,0,1.121,0l5.631-5.637a.787.787,0,0,0,0-1.115Z" transform="translate(-14.971 -12.138)"/>
  <path id="Path_5" data-name="Path 5" d="M26.983,36.611H15.765a.794.794,0,0,1,0-1.581H26.983a.794.794,0,0,1,0,1.581Z" transform="translate(-14.997 -20.611)"/>
</svg>
