<?xml version="1.0" encoding="UTF-8"?>
<svg width="21px" height="20px" viewBox="0 0 21 20" version="1.1" xmlns="http://www.w3.org/2000/svg" xmlns:xlink="http://www.w3.org/1999/xlink">
    <title>home</title>
    <g id="home" stroke="none" stroke-width="1" fill="none" fill-rule="evenodd">
        <path d="M18.7712908,4.24487642 L11.5208888,0.34416014 C10.6649625,-0.114720047 9.63616315,-0.114720047 8.78023684,0.34416014 L1.52983482,4.24487642 C0.589080945,4.74923324 0.00142089597,5.72959503 2.06057393e-13,6.79701793 L2.06057393e-13,17.0998392 C2.06057393e-13,18.7015538 1.29844622,20 2.90016081,20 L7.25040201,20 C7.65083066,20 7.97544222,19.6753884 7.97544222,19.2749598 L7.97544222,14.1996784 C7.97544222,12.9983924 8.94927688,12.0245578 10.1505628,12.0245578 C11.3518488,12.0245578 12.3256834,12.9983924 12.3256834,14.1996784 L12.3256834,19.2749598 C12.3256834,19.6753884 12.650295,20 13.0507236,20 L17.4009648,20 C19.0026794,20 20.3011256,18.7015538 20.3011256,17.0998392 L20.3011256,6.79701793 C20.2997047,5.72959503 19.7120447,4.74923324 18.7712908,4.24487642 Z M18.8510452,17.0998392 C18.8510452,17.9006965 18.2018221,18.5499196 17.4009648,18.5499196 L13.7757638,18.5499196 L13.7757638,14.1996784 C13.7757638,12.1975352 12.1527061,10.5744774 10.1505628,10.5744774 C8.14841959,10.5744774 6.52536181,12.1975352 6.52536181,14.1996784 L6.52536181,18.5499196 L2.90016081,18.5499196 C2.09930351,18.5499196 1.44993932,17.9006965 1.44993932,17.0998392 L1.44993932,6.79701793 C1.44276837,6.27172918 1.72013375,5.78356611 2.1751206,5.52094718 L9.42552262,1.62023089 C9.85540092,1.38819057 10.3732207,1.38819057 10.803099,1.62023089 L18.126005,5.49919597 C18.5879229,5.7655908 18.8663683,6.26400806 18.8510452,6.79701793 L18.8510452,17.0998392 Z" id="Shape" stroke="#2B3954" stroke-width="0.5" fill="#2B3954" fill-rule="nonzero"></path>
    </g>
</svg>