<?xml version="1.0" encoding="UTF-8"?>
<svg width="32px" height="32px" viewBox="0 0 32 32" version="1.1" xmlns="http://www.w3.org/2000/svg" xmlns:xlink="http://www.w3.org/1999/xlink">
    <title>Group</title>
    <g id="05-Home" stroke="none" stroke-width="1" fill="none" fill-rule="evenodd">
        <g id="home" transform="translate(-34.000000, -181.000000)" fill="#1969FF">
            <g id="NAV">
                <g id="Group-7" transform="translate(0.000000, 181.000000)">
                    <g id="Group" transform="translate(34.000000, 0.000000)">
                        <path d="M26.2709677,31 L4.72774194,31 C2.11903739,30.9945001 0.00567728793,28.9471825 6.87622002e-16,26.42 L6.87622002e-16,10.94 C0.0105285311,9.26862767 0.960061397,7.73552773 2.47741935,6.94 L13.243871,1.25 C14.6500972,0.508414045 16.3486124,0.508414045 17.7548387,1.25 L28.5212903,6.91 C30.0386483,7.70552773 30.9881811,9.23862767 30.9987097,10.91 L30.9987097,26.42 C30.9930324,28.9471825 28.8796723,30.9945001 26.2709677,31 Z M15.483871,2.68989179 C15.0441043,2.69102158 14.6114425,2.79752465 14.2245161,3 L3.45806452,8.67 C2.59866882,9.12152339 2.06373136,9.99290183 2.06451527,10.94 L2.06451527,26.42 C2.06451527,27.8448947 3.25688294,29 4.72774194,29 L26.2709677,29 C27.7297188,28.9835667 28.9032267,27.8332607 28.9032267,26.42 L28.9032267,10.94 C28.9040106,9.99290183 28.3690731,9.12152339 27.5096774,8.67 L16.7741935,3 C16.378052,2.79266165 15.9341138,2.6860055 15.483871,2.68989179 Z" id="Shape"></path>
                        <rect id="Rectangle" x="10.3432258" y="24.01" width="10.3225806" height="2" rx="1"></rect>
                    </g>
                </g>
            </g>
        </g>
    </g>
</svg>