<?xml version="1.0" encoding="UTF-8"?>
<svg width="47px" height="47px" viewBox="0 0 47 47" version="1.1" xmlns="http://www.w3.org/2000/svg" xmlns:xlink="http://www.w3.org/1999/xlink">
    <title>arrow</title>
    <g id="icons" stroke="none" stroke-width="1" fill="none" fill-rule="evenodd">
        <g id="OUTLINED" transform="translate(-119.000000, -459.000000)" fill="#000000">
            <path d="M148.155508,458.999971 L158.047781,459.137991 C160.243635,459.168582 162.238556,460.063188 163.675782,461.496928 C165.108742,462.926073 166,464.890384 166,467.067852 L166,467.067852 L166,498.063363 C166,500.24703 165.103898,502.231735 163.665068,503.666741 C162.215373,505.104771 160.226577,506 158.039125,506 L158.039125,506 L148.008672,506 C147.756544,506 147.528148,505.898162 147.362837,505.733292 C147.198494,505.569386 147.096523,505.343055 147.096523,505.092942 C147.096523,504.842829 147.198494,504.616499 147.362837,504.452592 C147.528148,504.287722 147.756544,504.185884 148.008672,504.185884 L148.008672,504.185884 L158.039125,504.185884 C159.726758,504.185884 161.261323,503.49883 162.377875,502.388432 C163.486614,501.273978 164.17532,499.742821 164.17532,498.063363 L164.17532,498.063363 L164.17532,467.067852 C164.17532,465.394795 163.49059,463.881083 162.383921,462.777818 C161.262277,461.65916 159.718363,460.960558 158.030471,460.93741 L158.030471,460.93741 L148.135899,460.799553 C147.886028,460.79665 147.660912,460.693045 147.499036,460.527692 C147.337866,460.363059 147.239408,460.137139 147.242307,459.888836 C147.245202,459.640922 147.348962,459.417823 147.513781,459.257285 C147.679799,459.095579 147.907722,458.997187 148.155508,458.999971 L148.155508,458.999971 Z M140.4743,474.006839 C140.707938,474.006839 140.94176,474.095317 141.120104,474.273278 L141.120104,474.273278 L148.758269,481.890725 C148.949978,482.081551 149.059398,482.315058 149.059398,482.565226 C149.059398,482.833274 148.94369,483.054798 148.757579,483.240415 L148.757579,483.240415 L141.120086,490.857574 C140.941891,491.035294 140.707993,491.123709 140.4743,491.123709 C140.240476,491.123709 140.006423,491.035205 139.828408,490.857755 C139.651162,490.680891 139.562486,490.44894 139.562486,490.216985 C139.562486,489.985161 139.651073,489.753365 139.828195,489.576713 L139.828195,489.576713 L145.949069,483.472665 L119.912148,483.472665 C119.66006,483.472665 119.43172,483.370765 119.266437,483.205889 C119.102028,483.041885 119,482.815433 119,482.565226 C119,482.315113 119.10197,482.088782 119.266314,481.924876 C119.431624,481.760006 119.660021,481.658168 119.912148,481.658168 L119.912148,481.658168 L145.949069,481.658168 L139.828408,475.554332 C139.651162,475.377468 139.562486,475.145517 139.562486,474.913562 C139.562486,474.681738 139.651073,474.449942 139.828226,474.27326 C140.006554,474.095407 140.24053,474.006839 140.4743,474.006839 Z" id="arrow"></path>
        </g>
    </g>
</svg>