<?xml version="1.0" encoding="UTF-8"?>
<svg width="24px" height="24px" viewBox="0 0 24 24" version="1.1" xmlns="http://www.w3.org/2000/svg" xmlns:xlink="http://www.w3.org/1999/xlink">
    <title>Shape Copy 2</title>
    <g id="05-Home" stroke="none" stroke-width="1" fill="none" fill-rule="evenodd">
        <g id="home" transform="translate(-1164.000000, -60.000000)" fill="#8E8E98">
            <g id="Oval-2" transform="translate(1152.000000, 48.000000)">
                <path d="M26.698125,36 C26.181,36 25.7615625,35.5816792 25.7615625,35.0659309 C25.7615625,34.5501826 26.181,34.1318618 26.698125,34.1318618 L31.611,34.1318618 C32.30325,34.1318618 32.9325,33.8496775 33.388875,33.3958266 L33.387,33.3941435 C33.843375,32.9389835 34.1266875,32.3115958 34.1266875,31.6228718 L34.1266875,16.441397 C34.1266875,15.756974 33.8458125,15.1381883 33.3931875,14.6869553 C32.9311875,14.2261853 32.295375,13.938017 31.5999375,13.92848 L26.75475,13.8609727 C26.2396875,13.8549886 25.827,13.4333018 25.833,12.9194235 C25.839,12.4057323 26.2618125,11.9941435 26.776875,12.0000631 L31.6220625,12.0676348 C32.830125,12.0844649 33.9271875,12.577399 34.7176875,13.3659815 C35.50875,14.154938 36,15.2395427 36,16.441397 L36,31.6228718 C36,32.8273441 35.5063125,33.9224209 34.7115,34.7151174 L34.70775,34.7151174 C33.9125625,35.5076268 32.81625,36 31.611,36 L26.698125,36 Z M27.4280625,23.3712735 L27.4108125,23.3544434 L23.67,19.623777 C23.3045625,19.2591254 22.711125,19.2591254 22.3455,19.623777 C21.9800625,19.9882416 21.9800625,20.5800992 22.3455,20.9447508 L24.5045625,23.0978783 L12.9365625,23.0978783 C12.4194375,23.0978783 12,23.5161991 12,24.0319474 C12,24.5476957 12.4194375,24.9662035 12.9365625,24.9662035 L24.5045625,24.9662035 L22.3455,27.119331 C21.9800625,27.4837956 21.9800625,28.0756532 22.3455,28.4403048 C22.711125,28.8047694 23.3045625,28.8047694 23.67,28.4403048 L27.4108125,24.7094514 L27.4108125,24.7094514 C27.5975625,24.5231985 27.7025625,24.2978626 27.7025625,24.0319474 C27.7025625,23.7834233 27.603375,23.5461193 27.4280625,23.3712735 Z" id="Shape-Copy-2"></path>
            </g>
        </g>
    </g>
</svg>