<?xml version="1.0" encoding="UTF-8"?>
<svg width="47px" height="47px" viewBox="0 0 47 47" version="1.1" xmlns="http://www.w3.org/2000/svg" xmlns:xlink="http://www.w3.org/1999/xlink">
    <title>arrow</title>
    <g id="05-Home" stroke="none" stroke-width="1" fill="none" fill-rule="evenodd">
        <path d="M29.1555083,-2.85450865e-05 L39.0477808,0.137990666 C41.2436349,0.168582119 43.2385562,1.06318844 44.6757817,2.49692756 C46.1087424,3.92607332 47,5.89038395 47,8.06785224 L47,8.06785224 L47,39.0633632 C47,41.2470296 46.1038984,43.2317354 44.6650675,44.6667409 C43.2153735,46.1047711 41.2265773,47 39.039125,47 L39.039125,47 L29.0086719,47 C28.7565441,47 28.5281477,46.8981623 28.3628375,46.7332922 C28.1984936,46.5693858 28.0965234,46.3430551 28.0965234,46.0929422 C28.0965234,45.8428294 28.1984936,45.6164986 28.3628375,45.4525923 C28.5281477,45.2877222 28.7565441,45.1858845 29.0086719,45.1858845 L29.0086719,45.1858845 L39.039125,45.1858845 C40.7267578,45.1858845 42.2613227,44.4988302 43.3778755,43.3884324 C44.4866144,42.2739778 45.1753203,40.7428213 45.1753203,39.0633632 L45.1753203,39.0633632 L45.1753203,8.06785224 C45.1753203,6.39479462 44.49059,4.88108341 43.3839215,3.77781841 C42.2622769,2.65916001 40.7183633,1.9605576 39.0304706,1.93741032 L39.0304706,1.93741032 L29.1358985,1.79955336 C28.8860281,1.79665035 28.6609123,1.69304505 28.4990359,1.52769163 C28.3378657,1.36305944 28.2394076,1.13713932 28.2423068,0.888835753 C28.2452025,0.640921607 28.3489625,0.417823327 28.5137813,0.257285255 C28.6797991,0.0955792591 28.9077215,-0.00281328121 29.1555083,-2.85450865e-05 L29.1555083,-2.85450865e-05 Z M21.4742998,15.0068386 C21.7079381,15.0068386 21.9417596,15.0953168 22.1201041,15.2732778 L22.1201041,15.2732778 L29.758269,22.8907252 C29.9499779,23.0815514 30.0593984,23.3150581 30.0593984,23.5652259 C30.0593984,23.8332742 29.9436903,24.0547982 29.7575785,24.2404145 L29.7575785,24.2404145 L22.1200864,31.8575736 C21.9418911,32.0352945 21.7079927,32.1237087 21.4742998,32.1237087 C21.2404755,32.1237087 21.0064228,32.0352046 20.8284077,31.8577547 C20.6511624,31.6808906 20.5624863,31.4489401 20.5624863,31.216985 C20.5624863,30.9851611 20.6510725,30.7533647 20.8281954,30.5767134 L20.8281954,30.5767134 L26.9490689,24.4726655 L0.912148437,24.4726655 C0.660059834,24.4726655 0.431720005,24.3707654 0.266436853,24.2058893 C0.102027591,24.0418849 0,23.815433 0,23.5652259 C0,23.3151131 0.101970114,23.0887823 0.266314031,22.9248759 C0.431624232,22.7600058 0.660020656,22.6581682 0.912148437,22.6581682 L0.912148437,22.6581682 L26.949069,22.6581682 L20.8284077,16.5543321 C20.6511624,16.3774679 20.5624863,16.1455175 20.5624863,15.9135623 C20.5624863,15.6817384 20.6510725,15.4499421 20.8282261,15.2732601 C21.0065543,15.0954067 21.2405302,15.0068386 21.4742998,15.0068386 Z" id="arrow" fill="#000000"></path>
    </g>
</svg>