<?xml version="1.0" encoding="UTF-8"?>
<svg width="80px" height="80px" viewBox="0 0 80 80" version="1.1" xmlns="http://www.w3.org/2000/svg" xmlns:xlink="http://www.w3.org/1999/xlink">
    <title>Shape</title>
    <g id="Page-1" stroke="none" stroke-width="1" fill="none" fill-rule="evenodd">
        <path d="M65.7883228,8 L36.56401,37.2243128 C34.8484762,38.9398466 34.8459918,41.728257 36.5642987,43.4465639 C38.2791092,45.1613744 41.0684023,45.1650001 42.7865498,43.4468526 L72,14.2334024 L72,24.0031611 C72,26.2058797 73.790861,28 76,28 C78.2046438,28 80,26.2105543 80,24.0031611 L80,3.9968389 C80,2.8960049 79.5527117,1.89722307 78.8294627,1.17343595 C78.1051125,0.44841019 77.1063303,0 76.0031611,0 L55.9968389,0 C53.7941203,0 52,1.790861 52,4 C52,6.2046438 53.7894457,8 55.9968389,8 L65.7883228,8 L65.7883228,8 Z M80,48 L80,28.9851507 L80,70.0296986 C80,75.536144 76.0327876,80 71.1329365,80 L8.8670635,80 C3.9699196,80 0,75.5274312 0,70.0296986 L0,9.9703014 C0,4.463856 3.9672124,0 8.8670635,0 L51.5664682,0 L32,0 C34.209139,0 36,1.790861 36,4 C36,6.209139 34.209139,8 32,8 L10.2777939,8 C9.0052872,8 8,9.1947367 8,10.668519 L8,69.331481 C8,70.7786636 9.0198031,72 10.2777939,72 L69.7222061,72 C70.9947128,72 72,70.8052633 72,69.331481 L72,48 C72,45.790861 73.790861,44 76,44 C78.209139,44 80,45.790861 80,48 L80,48 Z" id="Shape" fill="#000000" fill-rule="nonzero"></path>
    </g>
</svg>