<svg id="Component_5_1" data-name="Component 5 – 1" xmlns="http://www.w3.org/2000/svg" width="16" height="16" viewBox="0 0 16 16">
  <path id="Path_7" data-name="Path 7" d="M7.273,0H8.727V1.454H7.273Zm2.906,0V5.821H16V0Zm4.366,4.369H11.636v-2.9h2.909ZM0,7.273H1.454V8.727H0ZM5.821,5.821V0H0V5.821ZM1.454,1.454H4.369V4.369h-2.9ZM2.91,7.273H4.364V8.727H2.91ZM0,10.179V16H5.821V10.179Zm4.369,4.366h-2.9V11.64h2.9Zm1.45-7.272H7.273V8.727H5.819ZM7.273,2.91H8.727V7.273H7.273Z" fill-rule="evenodd"/>
  <path id="Path_8" data-name="Path 8" d="M16.261,16.261h1.454V14.806H16.261V13.352H14.806v1.454H13.352v1.454h1.454v1.454H13.352v4.364h1.454V19.17h1.454Z" transform="translate(-6.079 -6.079)" fill-rule="evenodd"/>
  <path id="Path_9" data-name="Path 9" d="M18.692,22.079H21.6V20.624H20.146V19.17H18.692Zm1.454-8.727H21.6v1.454H20.146ZM21.6,17.715H20.146V19.17h2.909V17.715H24.51V16.261H23.056V14.806H21.6Z" transform="translate(-8.51 -6.079)" fill-rule="evenodd"/>
  <path id="Path_10" data-name="Path 10" d="M26.7,13.352h1.454v1.454H26.7Zm0,7.272h1.454v1.454H26.7Z" transform="translate(-12.157 -6.079)" fill-rule="evenodd"/>
</svg>
