<?xml version="1.0" encoding="UTF-8"?>
<svg width="49px" height="49px" viewBox="0 0 49 49" version="1.1" xmlns="http://www.w3.org/2000/svg" xmlns:xlink="http://www.w3.org/1999/xlink">
    <title>QR</title>
    <g id="icons" stroke="none" stroke-width="1" fill="none" fill-rule="evenodd">
        <g id="OUTLINED" transform="translate(-1.000000, -455.000000)" fill="#000000" fill-rule="nonzero">
            <path d="M5.94682884,455 C3.21202433,455 1.00170287,457.210168 1.00170287,459.944782 L1.00170287,464.930431 C1.00170287,467.665045 3.21202433,469.875213 5.94682884,469.875213 L10.9328236,469.875213 C13.6676281,469.875213 15.8779496,467.665045 15.8779496,464.930431 L15.8779496,459.944782 C15.8779496,457.210168 13.6676281,455 10.9328236,455 L5.94682884,455 Z M24.9474196,455 L24.9474196,456.905376 L26.8546308,456.905376 L26.8546308,455 L24.9474196,455 Z M40.0688792,455 C37.3340747,455 35.1237533,457.210168 35.1237533,459.944782 L35.1237533,464.930431 C35.1237533,467.665045 37.3340747,469.875213 40.0688792,469.875213 L45.054874,469.875213 C47.7896785,469.875213 50,467.665045 50,464.930431 L50,459.944782 C50,457.210168 47.7896785,455 45.054874,455 L40.0688792,455 Z M5.94682884,456.907079 L10.9328236,456.907079 C12.5982276,456.907079 13.9724414,458.279494 13.9724414,459.946485 L13.9724414,464.932133 C13.9724414,466.597422 12.5999305,467.97154 10.9328236,467.97154 L5.94682884,467.97154 C4.28142485,467.97154 2.90721112,466.599124 2.90721112,464.932133 L2.90721112,459.946485 C2.90721112,458.281197 4.27972198,456.907079 5.94682884,456.907079 Z M40.0688792,456.907079 L45.054874,456.907079 C46.720278,456.907079 48.0944917,458.279494 48.0944917,459.946485 L48.0944917,464.932133 C48.0944917,466.597422 46.7219809,467.97154 45.054874,467.97154 L40.0688792,467.97154 C38.4034752,467.97154 37.0292615,466.599124 37.0292615,464.932133 L37.0292615,459.946485 C37.0292615,458.281197 38.4017724,456.907079 40.0688792,456.907079 Z M20.9558992,458.991243 L20.9558992,464.591584 L22.8631103,464.591584 L22.8631103,458.991243 L20.9558992,458.991243 Z M28.9372372,462.681099 L28.9372372,464.588178 L30.8427454,464.588178 L30.8427454,462.681099 L28.9372372,462.681099 Z M24.9474196,466.672342 L24.9474196,470.663586 L20.9558992,470.663586 L20.9558992,472.570664 L26.8529279,472.570664 L26.8529279,466.674045 L24.9474196,466.672342 Z M4.99152042,474.653126 L4.99152042,476.560204 L6.89702867,476.560204 L6.89702867,474.653126 L4.99152042,474.653126 Z M12.9728584,474.653126 L12.9728584,476.560204 L18.8698871,476.560204 L18.8698871,474.653126 L12.9728584,474.653126 Z M28.9372372,474.653126 L28.9372372,480.549745 L30.8427454,480.549745 L30.8427454,474.653126 L28.9372372,474.653126 Z M40.8113293,474.653126 L40.8113293,476.560204 L46.0101825,476.560204 L46.0101825,474.653126 L40.8113293,474.653126 Z M48.0944917,478.547312 L48.0944917,482.53515 L40.9100956,482.53515 L40.9100956,484.440525 L50,484.440525 L50,478.547312 L48.0944917,478.547312 Z M8.98304083,478.644369 L8.98304083,480.551447 L10.8885491,480.551447 L10.8885491,478.644369 L8.98304083,478.644369 Z M36.920278,478.644369 L36.920278,480.551447 L38.8257863,480.551447 L38.8257863,478.644369 L36.920278,478.644369 Z M1,478.647774 L1,484.544393 L2.90721112,484.544393 L2.90721112,478.647774 L1,478.647774 Z M20.9558992,478.647774 L20.9558992,484.544393 L22.8631103,484.544393 L22.8631103,478.647774 L20.9558992,478.647774 Z M12.8740921,482.635612 L12.8740921,484.540988 L14.7813032,484.540988 L14.7813032,482.635612 L12.8740921,482.635612 Z M32.9287576,482.639017 L32.9287576,484.544393 L34.8342659,484.544393 L34.8342659,482.639017 L32.9287576,482.639017 Z M24.9474196,486.529798 L24.9474196,488.435174 L26.8546308,488.435174 L26.8546308,486.529798 L24.9474196,486.529798 Z M5.94682884,489.124787 C3.21202433,489.124787 1.00170287,491.33155 1.00170287,494.067867 L1.00170287,499.05692 C1.00170287,501.791535 3.21032146,504 5.94682884,504 L10.9328236,504 C13.6676281,504 15.8779496,501.793238 15.8779496,499.05692 L15.8779496,494.067867 C15.8779496,491.333252 13.669331,489.124787 10.9328236,489.124787 L5.94682884,489.124787 Z M40.9117984,490.417173 L40.9117984,492.322549 L42.8173067,492.322549 L42.8173067,490.417173 L40.9117984,490.417173 Z M48.0944917,490.417173 L48.0944917,496.313792 L50,496.313792 L50,490.417173 L48.0944917,490.417173 Z M28.9372372,490.420579 L28.9372372,492.325955 L34.8342659,492.325955 L34.8342659,490.420579 L28.9372372,490.420579 Z M20.9558992,490.519338 L20.9558992,496.015811 L22.8631103,496.015811 L22.8631103,490.519338 L20.9558992,490.519338 Z M5.94682884,491.026757 L10.9328236,491.026757 C12.5982276,491.026757 13.9724414,492.399173 13.9724414,494.066164 L13.9724414,499.051812 C13.9724414,500.7171 12.5999305,502.091219 10.9328236,502.091219 L5.94682884,502.091219 C4.28142485,502.091219 2.90721112,500.718803 2.90721112,499.051812 L2.90721112,494.066164 C2.90721112,492.400876 4.27972198,491.026757 5.94682884,491.026757 Z M36.920278,494.410119 L36.920278,496.315495 L38.8257863,496.315495 L38.8257863,494.410119 L36.920278,494.410119 Z M24.9474196,498.101678 L24.9474196,503.998297 L26.8546308,503.998297 L26.8546308,500.007054 L30.8461512,500.007054 L30.8461512,498.101678 L24.9474196,498.101678 Z M40.9117984,498.401362 L40.9117984,503.998297 L42.8173067,503.998297 L42.8173067,500.308441 L46.0101825,500.308441 L46.0101825,498.403065 L40.9117984,498.401362 Z M32.8282884,502.091219 L32.8282884,503.996595 L34.7337967,503.996595 L34.7337967,502.091219 L32.8282884,502.091219 Z" id="QR"></path>
        </g>
    </g>
</svg>