<?xml version="1.0" encoding="UTF-8"?>
<svg width="49px" height="49px" viewBox="0 0 49 49" version="1.1" xmlns="http://www.w3.org/2000/svg" xmlns:xlink="http://www.w3.org/1999/xlink">
    <title>QR</title>
    <g id="05-Home" stroke="none" stroke-width="1" fill="none" fill-rule="evenodd">
        <path d="M4.94682884,0 C2.21202433,0 0.00170286707,2.21016784 0.00170286707,4.94478229 L0.00170286707,9.93043055 C0.00170286707,12.665045 2.21202433,14.8752128 4.94682884,14.8752128 L9.93282363,14.8752128 C12.6676281,14.8752128 14.8779496,12.665045 14.8779496,9.93043055 L14.8779496,4.94478229 C14.8779496,2.21016784 12.6676281,0 9.93282363,0 L4.94682884,0 Z M23.9474196,1.11022302e-15 L23.9474196,1.90537582 L25.8546308,1.90537582 L25.8546308,1.11022302e-15 L23.9474196,1.11022302e-15 Z M39.0688792,0 C36.3340747,0 34.1237533,2.21016784 34.1237533,4.94478229 L34.1237533,9.93043055 C34.1237533,12.665045 36.3340747,14.8752128 39.0688792,14.8752128 L44.054874,14.8752128 C46.7896785,14.8752128 49,12.665045 49,9.93043055 L49,4.94478229 C49,2.21016784 46.7896785,0 44.054874,0 L39.0688792,0 Z M4.94682884,1.90707857 L9.93282363,1.90707857 C11.5982276,1.90707857 12.9724414,3.27949404 12.9724414,4.94648504 L12.9724414,9.9321333 C12.9724414,11.5974216 11.5999305,12.9715398 9.93282363,12.9715398 L4.94682884,12.9715398 C3.28142485,12.9715398 1.90721112,11.5991243 1.90721112,9.9321333 L1.90721112,4.94648504 C1.90721112,3.28119679 3.27972198,1.90707857 4.94682884,1.90707857 Z M39.0688792,1.90707857 L44.054874,1.90707857 C45.720278,1.90707857 47.0944917,3.27949404 47.0944917,4.94648504 L47.0944917,9.9321333 C47.0944917,11.5974216 45.7219809,12.9715398 44.054874,12.9715398 L39.0688792,12.9715398 C37.4034752,12.9715398 36.0292615,11.5991243 36.0292615,9.9321333 L36.0292615,4.94648504 C36.0292615,3.28119679 37.4017724,1.90707857 39.0688792,1.90707857 Z M19.9558992,3.99124301 L19.9558992,9.59158356 L21.8631103,9.59158356 L21.8631103,3.99124301 L19.9558992,3.99124301 Z M27.9372372,7.68109949 L27.9372372,9.58817806 L29.8427454,9.58817806 L29.8427454,7.68109949 L27.9372372,7.68109949 Z M23.9474196,11.6723425 L23.9474196,15.6635855 L19.9558992,15.6635855 L19.9558992,17.5706641 L25.8529279,17.5706641 L25.8529279,11.6740452 L23.9474196,11.6723425 Z M3.99152042,19.6531258 L3.99152042,21.5602043 L5.89702867,21.5602043 L5.89702867,19.6531258 L3.99152042,19.6531258 Z M11.9728584,19.6531258 L11.9728584,21.5602043 L17.8698871,21.5602043 L17.8698871,19.6531258 L11.9728584,19.6531258 Z M27.9372372,19.6531258 L27.9372372,25.5497446 L29.8427454,25.5497446 L29.8427454,19.6531258 L27.9372372,19.6531258 Z M39.8113293,19.6531258 L39.8113293,21.5602043 L45.0101825,21.5602043 L45.0101825,19.6531258 L39.8113293,19.6531258 Z M47.0944917,23.5473121 L47.0944917,27.5351496 L39.9100956,27.5351496 L39.9100956,29.4405254 L49,29.4405254 L49,23.5473121 L47.0944917,23.5473121 Z M7.98304083,23.6443688 L7.98304083,25.5514473 L9.88854909,25.5514473 L9.88854909,23.6443688 L7.98304083,23.6443688 Z M35.920278,23.6443688 L35.920278,25.5514473 L37.8257863,25.5514473 L37.8257863,23.6443688 L35.920278,23.6443688 Z M0,23.6477743 L0,29.5443931 L1.90721112,29.5443931 L1.90721112,23.6477743 L0,23.6477743 Z M19.9558992,23.6477743 L19.9558992,29.5443931 L21.8631103,29.5443931 L21.8631103,23.6477743 L19.9558992,23.6477743 Z M11.8740921,27.6356118 L11.8740921,29.5409876 L13.7813032,29.5409876 L13.7813032,27.6356118 L11.8740921,27.6356118 Z M31.9287576,27.6390173 L31.9287576,29.5443931 L33.8342659,29.5443931 L33.8342659,27.6390173 L31.9287576,27.6390173 Z M23.9474196,31.5297981 L23.9474196,33.4351739 L25.8546308,33.4351739 L25.8546308,31.5297981 L23.9474196,31.5297981 Z M4.94682884,34.1247872 C2.21202433,34.1247872 0.00170286707,36.3315495 0.00170286707,39.0678667 L0.00170286707,44.0569205 C0.00170286707,46.7915349 2.21032146,49 4.94682884,49 L9.93282363,49 C12.6676281,49 14.8779496,46.7932377 14.8779496,44.0569205 L14.8779496,39.0678667 C14.8779496,36.3332523 12.669331,34.1247872 9.93282363,34.1247872 L4.94682884,34.1247872 Z M39.9117984,35.4171734 L39.9117984,37.3225493 L41.8173067,37.3225493 L41.8173067,35.4171734 L39.9117984,35.4171734 Z M47.0944917,35.4171734 L47.0944917,41.3137923 L49,41.3137923 L49,35.4171734 L47.0944917,35.4171734 Z M27.9372372,35.4205789 L27.9372372,37.3259548 L33.8342659,37.3259548 L33.8342659,35.4205789 L27.9372372,35.4205789 Z M19.9558992,35.5193384 L19.9558992,41.0158112 L21.8631103,41.0158112 L21.8631103,35.5193384 L19.9558992,35.5193384 Z M4.94682884,36.0267575 L9.93282363,36.0267575 C11.5982276,36.0267575 12.9724414,37.399173 12.9724414,39.066164 L12.9724414,44.0518122 C12.9724414,45.7171005 11.5999305,47.0912187 9.93282363,47.0912187 L4.94682884,47.0912187 C3.28142485,47.0912187 1.90721112,45.7188032 1.90721112,44.0518122 L1.90721112,39.066164 C1.90721112,37.4008757 3.27972198,36.0267575 4.94682884,36.0267575 Z M35.920278,39.4101192 L35.920278,41.315495 L37.8257863,41.315495 L37.8257863,39.4101192 L35.920278,39.4101192 Z M23.9474196,43.1016784 L23.9474196,48.9982973 L25.8546308,48.9982973 L25.8546308,45.0070542 L29.8461512,45.0070542 L29.8461512,43.1016784 L23.9474196,43.1016784 Z M39.9117984,43.4013622 L39.9117984,48.9982973 L41.8173067,48.9982973 L41.8173067,45.3084408 L45.0101825,45.3084408 L45.0101825,43.4030649 L39.9117984,43.4013622 Z M31.8282884,47.0912187 L31.8282884,48.9965945 L33.7337967,48.9965945 L33.7337967,47.0912187 L31.8282884,47.0912187 Z" id="QR" fill="#000000" fill-rule="nonzero"></path>
    </g>
</svg>