<?xml version="1.0" encoding="UTF-8"?>
<svg width="51px" height="50px" viewBox="0 0 51 50" version="1.1" xmlns="http://www.w3.org/2000/svg" xmlns:xlink="http://www.w3.org/1999/xlink">
    <title>settings</title>
    <g id="05-Home" stroke="none" stroke-width="1" fill="none" fill-rule="evenodd">
        <path d="M34.240006,25 C34.240006,29.6060548 30.5060548,33.34 25.9,33.34 C21.2939452,33.34 17.56,29.6060548 17.56,25 C17.56,20.3939452 21.2939452,16.659994 25.9,16.659994 C28.1127193,16.6573421 30.2355756,17.5351646 31.8002055,19.0997945 C33.3648354,20.6644244 34.2426579,22.7872807 34.240006,25 L34.240006,25 Z M44.06,29.72 C43.6177521,31.3950507 42.9446344,33.0004363 42.06,34.49 C41.8031955,34.9155589 41.8432966,35.4569232 42.16,35.84 L44.57,38.74 C44.9526107,39.2092032 44.9180467,39.8918427 44.49,40.32 L41.21,43.61 C40.7792071,44.035046 40.0966936,44.065284 39.63,43.68 L36.73,41.27 C36.3404438,40.9576462 35.7973198,40.9217041 35.37,41.18 C33.8855815,42.0677889 32.2830384,42.7411263 30.61,43.18 C30.1346625,43.2965142 29.780584,43.6943552 29.72,44.18 L29.37,47.92 C29.3239094,48.519422 28.8310365,48.9863542 28.23,49 L23.58,49 C22.9747859,48.9970412 22.4717211,48.5330073 22.42,47.93 L22.07,44.19 C22.0040993,43.7067842 21.6523081,43.3115132 21.18,43.19 C19.5063526,42.7529225 17.9035619,42.079481 16.42,41.19 C15.9926802,40.9317041 15.4495562,40.9676462 15.06,41.28 L12.16,43.69 C11.6933064,44.075284 11.0107929,44.045046 10.58,43.62 L7.3,40.28 C6.86735318,39.8538963 6.83260526,39.1676248 7.22,38.7 L9.63,35.8 C9.94650273,35.4159036 9.98271558,34.8727109 9.72,34.45 C8.83901752,32.9586002 8.16611732,31.3537332 7.72,29.68 C7.60348581,29.2046625 7.2056448,28.850584 6.72,28.79 L3,28.44 C2.39317092,28.3879479 1.92777165,27.8790534 1.92999203,27.27 L1.92999203,22.63 C1.92777165,22.0209466 2.39317092,21.5120521 3,21.46 L6.78,21.11 C7.26973185,21.0508079 7.66972664,20.6908126 7.78,20.21 C8.22216143,18.5507089 8.89541754,16.9618245 9.78,15.49 C10.0444079,15.0641877 10.008214,14.5172565 9.69,14.13 L7.22,11.2 C6.83471604,10.7333064 6.86495398,10.0507929 7.29,9.62 L10.58,6.34 C11.0081573,5.91195334 11.6907968,5.87738932 12.16,6.26 L15.09,8.7 C15.4772565,9.01821396 16.0241877,9.05440794 16.45,8.79 C17.9268115,7.9273231 19.5149352,7.27121268 21.17,6.84 C21.6468954,6.72608191 22.0021753,6.32689099 22.06,5.84 L22.42,2.04 C22.4817065,1.44662055 22.9834293,0.996800146 23.58,0.99994628 L28.24,0.99994628 C28.823036,0.994430695 29.3196042,1.42250671 29.4,2 L29.76,5.8 C29.8178247,6.28689099 30.1731046,6.68608191 30.65,6.8 C32.304428,7.23311101 33.8922997,7.88911729 35.37,8.75 C35.7958123,9.01440794 36.3427435,8.97821396 36.73,8.66 L39.66,6.22 C40.1292032,5.83738932 40.8118427,5.87195334 41.24,6.3 L44.52,9.58 C44.9526468,10.0061037 44.9873947,10.6923752 44.6,11.16 L42.17,14.09 C41.851786,14.4772565 41.8155921,15.0241877 42.08,15.45 C42.9645825,16.9218245 43.6378386,18.5107089 44.08,20.17 C44.1902734,20.6508126 44.5902681,21.0108079 45.08,21.07 L48.85,21.42 C49.4528688,21.4769262 49.9126817,21.9844555 49.9100117,22.59 L49.9100117,27.23 C49.9126817,27.8355445 49.4528688,28.3430738 48.85,28.4 L45.09,28.75 C44.603109,28.8078247 44.2039181,29.1631046 44.09,29.64 L44.06,29.72 Z" id="settings" stroke="#0B1823" stroke-width="2"></path>
    </g>
</svg>