<?xml version="1.0" encoding="UTF-8"?>
<svg width="51px" height="50px" viewBox="0 0 51 50" version="1.1" xmlns="http://www.w3.org/2000/svg" xmlns:xlink="http://www.w3.org/1999/xlink">
    <title>settings</title>
    <g id="icons" stroke="none" stroke-width="1" fill="none" fill-rule="evenodd">
        <g id="OUTLINED" transform="translate(-117.000000, -173.000000)" fill="#0B1823" fill-rule="nonzero">
            <path d="M145.23054,172.999893 C146.261876,172.990234 147.147888,173.709124 147.366626,174.740329 L147.395542,174.905685 L147.753021,178.682066 C147.761423,178.752811 147.813045,178.810813 147.903255,178.8326 C149.645358,179.288664 151.317377,179.979434 152.897522,180.900459 C152.943925,180.929272 153.000227,180.933518 153.047083,180.916098 L153.090074,180.891564 L156.028032,178.445005 C156.849243,177.775351 158.024353,177.797417 158.818417,178.474064 L158.947107,178.592893 L162.221699,181.867526 C162.981896,182.616227 163.079748,183.798004 162.476726,184.658128 L162.369726,184.798374 L159.942618,187.724871 C159.896382,187.781139 159.891123,187.860608 159.93711,187.934867 C160.869978,189.487032 161.579984,191.162646 162.054694,192.946456 C162.066711,192.998852 162.102407,193.041374 162.1379,193.061747 L162.172441,193.074282 L165.944007,193.424428 C167.008897,193.524981 167.833132,194.38356 167.904947,195.431465 L167.910023,195.59 L167.910023,200.225591 C167.914718,201.295206 167.141417,202.199931 166.100729,202.374981 L165.942684,202.395696 L162.207934,202.743021 C162.154876,202.749323 162.108985,202.779935 162.082373,202.824081 L162.062635,202.872338 L162.026329,202.991123 L162.009,203.037 L161.879812,203.502445 C161.519731,204.727177 161.04129,205.913859 160.450242,207.047883 L160.190058,207.530627 L159.916186,208.006667 C159.888201,208.053042 159.884482,208.108882 159.903099,208.156558 L159.92909,208.20086 L162.344995,211.108032 C163.014649,211.929243 162.992583,213.104353 162.31685,213.897501 L162.198182,214.02603 L158.912343,217.321839 C158.158359,218.065764 156.986996,218.155056 156.130558,217.555415 L155.99086,217.44909 L153.10444,215.050176 C153.042242,215.000304 152.955524,214.994566 152.883278,215.038222 C151.317921,215.974418 149.627998,216.68447 147.848071,217.151248 C147.793689,217.164578 147.749712,217.202047 147.728633,217.238286 L147.71565,217.273176 L147.367057,220.996665 C147.285643,222.055473 146.452622,222.891398 145.390907,222.990694 L145.23,223 L140.575111,223 C139.506072,222.994762 138.608875,222.213883 138.443585,221.180078 L138.42435,221.023176 L138.079172,217.325129 C138.068188,217.244593 138.009557,217.178714 137.927322,217.15755 C136.161716,216.696458 134.470859,215.986014 132.902703,215.045806 C132.851533,215.014876 132.789961,215.010371 132.741863,215.026415 L132.69914,215.04909 L129.79664,217.461161 C128.979822,218.135494 127.805152,218.120847 126.997585,217.440262 L126.866514,217.320669 L123.598301,213.992474 C122.838104,213.243773 122.740252,212.061996 123.343815,211.201221 L123.45091,211.06086 L125.858255,208.164068 C125.901911,208.111089 125.906906,208.036166 125.858998,207.958601 C124.931648,206.388707 124.223332,204.699373 123.748752,202.918071 C123.735422,202.863689 123.697953,202.819712 123.661504,202.798614 L123.626328,202.785603 L119.914537,202.436341 C118.842649,202.344398 118.008682,201.483929 117.935239,200.429541 L117.929984,200.27 L117.929984,195.633646 C117.926077,194.55783 118.708814,193.65051 119.749785,193.483662 L119.907802,193.464259 L123.660007,193.117225 C123.731165,193.108625 123.789284,193.056318 123.813719,192.952509 C124.280016,191.202646 124.990022,189.527032 125.930459,187.962478 C125.959272,187.916075 125.963518,187.859773 125.947728,187.814863 L125.925427,187.774537 L123.448839,184.83664 C122.774506,184.019822 122.789153,182.845152 123.46518,182.042095 L123.58397,181.911818 L126.872985,178.632802 C127.622355,177.883625 128.793685,177.786884 129.658716,178.385371 L129.799926,178.491564 L132.724871,180.927382 C132.781139,180.973618 132.860608,180.978877 132.945604,180.926528 C134.501347,180.017743 136.174352,179.326565 137.937662,178.867365 C137.989632,178.854951 138.031661,178.819221 138.051909,178.782251 L138.064458,178.745685 L138.425364,174.936566 C138.534791,173.884298 139.387342,173.074478 140.423301,173.004787 L140.58,172.999893 L145.23054,172.999893 Z M145.24946,174.999902 L140.574726,174.999902 C140.508854,174.999902 140.451368,175.039245 140.427114,175.092365 L140.415542,175.134315 L140.053021,178.957934 C139.952477,179.804532 139.367048,180.508168 138.581762,180.762838 L138.422124,180.807695 C137.029586,181.170509 135.687112,181.701522 134.440443,182.378764 L133.977522,182.639541 C133.237127,183.099289 132.299296,183.069023 131.588978,182.573695 L131.450074,182.468436 L128.528032,180.034995 C128.470774,179.988303 128.392678,179.982339 128.329785,180.015756 L128.28603,180.048182 L125.001839,183.322343 C124.949969,183.374914 124.936643,183.45206 124.960105,183.513222 L124.984573,183.555463 L127.462618,186.495129 C128.05281,187.213374 128.119939,188.227768 127.63711,189.005133 C126.800813,190.396617 126.164307,191.898772 125.754694,193.433544 C125.562953,194.269572 124.898934,194.908655 124.045357,195.078178 L123.872198,195.105741 L120.085463,195.456341 C120.014924,195.462392 119.957535,195.510928 119.93757,195.577281 L119.929984,195.63 L119.929984,200.273646 C119.929984,200.344448 119.972957,200.405934 120.039607,200.431947 L120.093672,200.444397 L123.84379,200.797692 C124.684923,200.902623 125.383485,201.484113 125.640779,202.263927 L125.686265,202.422451 C126.061943,203.831911 126.607376,205.189821 127.301926,206.452981 L127.569331,206.922139 C128.027951,207.660061 127.997349,208.595162 127.503936,209.301129 L127.39909,209.43914 L124.990075,212.337954 C124.945044,212.39231 124.939269,212.466999 124.976982,212.532443 L125.013486,212.579331 L128.282343,215.908161 C128.334914,215.960031 128.41206,215.973357 128.475985,215.947582 L128.52086,215.92091 L131.43444,213.499824 C132.151354,212.924988 133.150885,212.858843 133.934217,213.33234 C135.336264,214.172948 136.85099,214.809387 138.429161,215.221538 C139.240941,215.430389 139.858528,216.080353 140.036079,216.925307 L140.06565,217.096824 L140.416342,220.844542 C140.422354,220.914635 140.470337,220.971805 140.53181,220.992083 L140.58,221.000258 L145.207302,221.000258 C145.277166,220.998671 145.336972,220.954934 145.362249,220.884456 L145.37435,220.826824 L145.727692,217.05621 C145.832623,216.215077 146.414113,215.516515 147.197068,215.258391 L147.356264,215.212727 C148.938078,214.797783 150.453242,214.161159 151.852703,213.324194 C152.586688,212.880533 153.506322,212.908575 154.219597,213.390662 L154.36914,213.50091 L157.26664,215.908839 C157.323593,215.955857 157.401615,215.962308 157.461202,215.932786 L157.501818,215.90397 L160.782802,212.612985 C160.835038,212.560735 160.84886,212.483641 160.82544,212.42192 L160.80091,212.37914 L158.389284,209.477179 C157.801894,208.766686 157.727518,207.762617 158.200197,206.979373 C158.944444,205.726198 159.530512,204.386407 159.945539,202.990685 L160.093131,202.464727 L160.123671,202.368877 L160.143,202.314 L160.163098,202.244541 C160.387419,201.549821 160.946949,201.017352 161.658682,200.820628 L161.825547,200.78127 L161.997316,200.754304 L165.755993,200.404428 C165.826072,200.397811 165.882851,200.349287 165.902556,200.28283 L165.910023,200.23 L165.910023,195.585591 C165.910023,195.515193 165.867631,195.453913 165.806489,195.428057 L165.757559,195.415718 L161.960007,195.062775 C161.051701,194.952991 160.30983,194.285308 160.113719,193.427491 C159.695693,191.858772 159.059187,190.356617 158.230459,188.977522 C157.770711,188.237127 157.800977,187.299296 158.295242,186.590257 L158.400274,186.451626 L160.829925,183.522046 C160.874956,183.46769 160.880731,183.393001 160.846284,183.330853 L160.812893,183.287107 L157.532985,180.007198 C157.480735,179.954962 157.403641,179.94114 157.342323,179.964226 L157.299926,179.988436 L154.364871,182.432618 C153.694509,182.983464 152.766169,183.078664 152.022892,182.702002 L151.866613,182.614061 C150.62271,181.889385 149.296371,181.318007 147.931296,180.915591 L147.417662,180.772635 C146.588445,180.574556 145.957474,179.911452 145.791396,179.065796 L145.764458,178.894315 L145.409552,175.137885 C145.400679,175.074151 145.355047,175.023595 145.295947,175.006311 L145.24946,174.999902 Z M142.899,188.659 L143.221451,188.665182 C145.582729,188.743975 147.831047,189.716423 149.507312,191.392688 C151.259771,193.145147 152.242976,195.522846 152.240013,198 C152.240013,203.158339 148.05834,207.34 142.9,207.34 C137.74166,207.34 133.56,203.15834 133.56,198 C133.56,192.932157 137.596223,188.80702 142.629428,188.663838 L142.899,188.659 Z M142.901198,190.659988 C138.846231,190.659988 135.56,193.946229 135.56,198 C135.56,202.05377 138.84623,205.34 142.9,205.34 C146.953771,205.34 150.240012,202.053769 150.240012,197.998802 C150.24234,196.051712 149.469897,194.1837 148.093099,192.806901 C146.7163,191.430103 144.848288,190.65766 142.901198,190.659988 Z" id="settings"></path>
        </g>
    </g>
</svg>