<?xml version="1.0" encoding="UTF-8"?>
<svg width="80px" height="90px" viewBox="0 0 80 90" version="1.1" xmlns="http://www.w3.org/2000/svg" xmlns:xlink="http://www.w3.org/1999/xlink">
    <title>settings</title>
    <g id="Main" stroke="none" stroke-width="1" fill="none" fill-rule="evenodd">
        <g id="settings" fill="#2B3954" fill-rule="nonzero">
            <path d="M75.8,41.3 L69.5,41.3 C67.9,34.9 61.9,30 55,30 C48.1,30 42.2,34.8 40.5,41.3 L4.2,41.3 C2.1,41.3 0.5,42.9 0.5,45 C0.5,47.1 2.1,48.7 4.2,48.7 L40.6,48.7 C42.2,55.1 48.2,60 55,60 C61.8,60 67.8,55.2 69.5,48.7 L75.8,48.7 C77.9,48.7 79.5,47.1 79.5,45 C79.5,42.9 77.8,41.3 75.8,41.3 Z M55,53.9 C50.1,53.9 46.1,49.9 46.1,45 C46.1,40.1 50.1,36.1 55,36.1 C59.9,36.1 63.9,40.1 63.9,45 C63.9,49.9 60,53.9 55,53.9 Z" id="Shape"></path>
            <path d="M4.2,18.9 L10.8,18.9 C12.4,25.3 18.4,30.2 25.3,30.2 C32.2,30.2 38.1,25.4 39.8,18.9 L75.9,18.9 C78,18.9 79.6,17.3 79.6,15.2 C79.6,13.1 78,11.5 75.9,11.5 L39.7,11.5 C38.1,5.1 32.1,0.2 25.2,0.2 C18.3,0.2 12.4,4.9 10.8,11.5 L4.2,11.5 C2.1,11.5 0.5,13.1 0.5,15.2 C0.5,17.3 2.2,18.9 4.2,18.9 Z M25.2,6.3 C30.1,6.3 34.1,10.3 34.1,15.2 C34.1,20.1 30.1,24.1 25.2,24.1 C20.3,24.1 16.3,20.1 16.3,15.2 C16.3,10.3 20.3,6.3 25.2,6.3 Z" id="Shape"></path>
            <path d="M75.8,71.1 L39.7,71.1 C38.1,64.7 32.1,59.8 25.2,59.8 C18.3,59.8 12.4,64.6 10.7,71.1 L4.1,71.1 C2,71.1 0.4,72.7 0.4,74.8 C0.4,76.9 2,78.5 4.1,78.5 L10.7,78.5 C12.3,84.9 18.3,89.8 25.2,89.8 C32.1,89.8 38,85 39.7,78.5 L75.8,78.5 C77.9,78.5 79.5,76.9 79.5,74.8 C79.5,72.7 77.8,71.1 75.8,71.1 Z M25.2,83.7 C20.3,83.7 16.3,79.7 16.3,74.8 C16.3,69.9 20.3,65.9 25.2,65.9 C30.1,65.9 34.1,69.9 34.1,74.8 C34.1,79.7 30.2,83.7 25.2,83.7 Z" id="Shape"></path>
        </g>
    </g>
</svg>