<svg xmlns="http://www.w3.org/2000/svg" width="15.999" height="16" viewBox="0 0 15.999 16">
  <path id="Path_12" data-name="Path 12" d="M10.188,3.622l1.731-2.537A.75.75,0,0,0,11.251,0H4.75a.75.75,0,0,0-.671,1.085L5.813,3.622C-.306,7.364,0,12.252,0,12.875A3.286,3.286,0,0,0,3.431,16h9.14A3.287,3.287,0,0,0,16,12.875c0-.612.275-5.531-5.81-9.252ZM9.822,1.5,8.627,3.25H7.374L6.179,1.5ZM14.5,12.875A1.8,1.8,0,0,1,12.571,14.5H3.431A1.8,1.8,0,0,1,1.5,12.875c-.026-2.531,1.02-5.483,5.341-8.125H9.159c4.3,2.631,5.361,5.591,5.34,8.125Z" transform="translate(-0.001)"/>
</svg>
