<?xml version="1.0" encoding="UTF-8"?>
<svg width="51px" height="51px" viewBox="0 0 51 51" version="1.1" xmlns="http://www.w3.org/2000/svg" xmlns:xlink="http://www.w3.org/1999/xlink">
    <title>staking</title>
    <g id="icons" stroke="none" stroke-width="1" fill="none" fill-rule="evenodd">
        <g id="OUTLINED" transform="translate(1.000000, -359.000000)" fill="#000000" fill-rule="nonzero">
            <path d="M15.3268353,359 L15.1374737,359.004139 C12.0072433,359.141536 10.1821407,362.671106 11.9483967,365.317344 L15.593,371.332 L15.3298029,371.507521 C8.59566559,376.038933 4.13075066,381.32739 1.54879812,387.069072 C-0.322616243,391.230677 -0.985439493,394.977776 -0.999769618,398.498163 L-0.992559881,399.429688 C-0.992559881,405.289156 4.17456323,410 10.5042932,410 L38.4978154,410 C44.7277023,410 49.8303598,405.437797 49.9907793,399.707841 L49.9991197,398.970796 L49.9991197,398.509226 C49.9703686,394.996111 49.2894803,391.225276 47.4108407,387.056627 L47.2022741,386.603399 C44.5820487,381.025641 40.1862198,375.89655 33.6647134,371.50349 L33.407,371.332 L37.0888096,365.279886 C38.86416,362.614647 36.9299458,359 33.6877148,359 L15.3268353,359 Z M15.3268353,361 L33.6877148,361 C35.3326997,361 36.3146963,362.835149 35.4019994,364.20611 L30.6874994,371.956579 L31.5119429,372.483143 C38.4843275,376.936338 43.0180542,382.176944 45.5874477,387.878356 C47.3399844,391.767186 47.972549,395.270398 47.9991532,398.517273 L47.9946685,399.429688 C47.9946685,404.141525 43.7627384,408 38.4978154,408 L10.5042932,408 C5.33398964,408 1.15893141,404.277792 1.01147088,399.681258 L1.0009927,398.847884 L1.00022203,398.501876 C1.01348684,395.245607 1.62861947,391.768114 3.3728556,387.889325 C5.93050317,382.201691 10.4742627,376.960457 17.4879604,372.484286 L18.3116645,371.958595 L13.6353039,364.243826 C12.6973513,362.836854 13.6796324,361 15.3268353,361 Z" id="staking"></path>
        </g>
    </g>
</svg>