<?xml version="1.0" encoding="UTF-8"?>
<svg width="86px" height="84px" viewBox="0 0 86 84" version="1.1" xmlns="http://www.w3.org/2000/svg" xmlns:xlink="http://www.w3.org/1999/xlink">
    <title>thumb</title>
    <g id="Page-1" stroke="none" stroke-width="1" fill="none" fill-rule="evenodd">
        <g id="thumb" fill="#000000" fill-rule="nonzero">
            <path d="M74.04,71.51 C72.94,71.51 72.04,70.61 72.04,69.51 C72.04,68.41 72.94,67.51 74.04,67.51 C74.94,67.51 75.69,67.22 76.39,66.59 L76.64,66.29 C77.17,65.68 77.45,64.95 77.51,64.03 C77.45,63.04 77.12,62.3 76.48,61.69 C76.44,61.65 76.39,61.61 76.35,61.56 C76.05,61.22 75.72,60.99 75.3,60.82 C74.38,60.45 73.87,59.47 74.1,58.5 C74.33,57.53 75.22,56.89 76.21,56.97 L76.92,57.03 C77.88,57.01 78.62,56.7 79.3,56.02 C79.3,56.02 79.31,56.01 79.32,56 C79.99,55.22 80.32,54.43 80.32,53.57 C80.32,52.58 80.01,51.82 79.3,51.11 C78.76,50.57 78.19,50.26 77.48,50.13 C76.53,49.95 75.85,49.13 75.85,48.16 L75.85,47.9 C75.85,46.85 76.66,45.98 77.71,45.9 L78.64,45.83 C78.69,45.83 78.73,45.83 78.78,45.83 C79.7,45.83 80.44,45.54 81.03,44.95 C81.58,44.36 81.9,43.63 81.97,42.71 C81.92,42.22 81.91,41.34 81.91,39.02 C81.77,38.35 81.49,37.84 81.03,37.37 C80.5,36.84 79.4,36.56 77.84,36.56 L55.37,36.56 C53.92,36.56 52.6,35.83 51.83,34.6 C51.05,33.34 50.97,31.79 51.63,30.45 C52.12,29.45 52.44,28.35 52.58,27.19 C52.62,26.73 52.7,24.03 52.7,18.64 L51,7.11 C50.87,6.52 50.6,6.02 50.15,5.57 C49.53,4.95 48.94,4.72 48.13,4.76 C48.07,4.76 48,4.76 47.94,4.76 C47.1,4.72 46.49,4.96 45.96,5.53 C45.29,6.2 45.06,6.78 45.1,7.6 C45.1,7.63 45.1,7.73 45.1,7.76 C45.1,7.88 45.09,8 45.07,8.12 L42.82,20.37 C42.79,20.54 42.75,20.68 42.7,20.83 C38.74,32.75 32.54,40.77 24.28,44.64 C23.28,45.11 22.09,44.68 21.62,43.68 C21.15,42.68 21.58,41.49 22.58,41.02 C29.79,37.63 35.28,30.42 38.89,19.59 L41.09,7.6 C41.04,5.75 41.71,4.11 43.08,2.74 C44.34,1.39 46.05,0.68 48.03,0.75 C49.96,0.67 51.59,1.35 52.98,2.74 C53.99,3.76 54.65,4.97 54.93,6.36 C54.94,6.39 54.94,6.43 54.95,6.46 L56.67,18.11 C56.69,18.27 56.7,18.42 56.7,18.57 C56.7,23.26 56.64,26.73 56.56,27.62 C56.36,29.27 55.92,30.8 55.23,32.21 C55.16,32.34 55.2,32.44 55.23,32.49 C55.27,32.55 55.31,32.56 55.37,32.56 L77.84,32.56 C80.51,32.56 82.54,33.23 83.86,34.55 C84.91,35.6 85.56,36.83 85.85,38.31 C85.89,38.51 85.91,38.75 85.91,38.97 C85.91,40.48 85.91,41.9 85.94,42.26 C85.97,42.41 85.98,42.57 85.97,42.72 C85.88,44.67 85.18,46.36 83.9,47.73 C83.49,48.14 83.05,48.49 82.58,48.78 C83.73,50.14 84.31,51.74 84.31,53.56 C84.31,55.43 83.63,57.15 82.28,58.68 C82.25,58.71 82.22,58.75 82.19,58.78 C81.62,59.35 81.02,59.81 80.37,60.16 C81.07,61.25 81.45,62.52 81.51,63.95 C81.51,64.01 81.51,64.07 81.51,64.14 C81.42,66 80.8,67.6 79.69,68.88 L79.38,69.25 C79.33,69.31 79.27,69.37 79.21,69.43 C77.74,70.81 76,71.51 74.04,71.51 Z" id="Shape"></path>
            <path d="M23.43,79.18 C22.33,79.18 21.43,78.28 21.43,77.18 L21.43,42.84 C21.43,41.74 22.33,40.84 23.43,40.84 C24.53,40.84 25.43,41.74 25.43,42.84 L25.43,77.18 C25.43,78.28 24.53,79.18 23.43,79.18 Z" id="Path"></path>
            <path d="M19.36,83.25 L5.02,83.25 C1.94,83.25 0.02,81.36 0.02,78.32 L0.02,42.84 C0.02,41.27 0.48,40.03 1.39,39.15 C2.3,38.27 3.54,37.86 5.09,37.91 L20.49,37.91 C22.28,37.85 23.43,38.54 24.05,39.14 C24.96,40.02 25.43,41.27 25.43,42.85 C25.43,43.95 24.53,44.85 23.43,44.85 C22.33,44.85 21.43,43.95 21.43,42.85 C21.43,42.3 21.31,42.06 21.27,42.02 C21.24,41.99 21.04,41.9 20.56,41.91 L5.02,41.91 C4.42,41.89 4.21,41.99 4.17,42.03 C4.13,42.07 4.02,42.3 4.02,42.85 L4.02,78.33 C4.02,79.09 4.06,79.26 5.02,79.26 L19.36,79.26 C20.5,79.26 21.43,78.33 21.43,77.19 C21.43,76.09 22.33,75.19 23.43,75.19 C24.53,75.19 25.43,76.09 25.43,77.19 C25.43,80.52 22.71,83.25 19.36,83.25 Z" id="Path"></path>
            <path d="M71.37,82.98 L34.1,82.98 C34,82.98 33.89,82.98 33.79,82.97 C29.25,82.53 25.37,81.12 22.24,78.79 C21.35,78.13 21.17,76.88 21.83,75.99 C22.49,75.1 23.74,74.92 24.63,75.58 C27.17,77.47 30.38,78.62 34.17,78.99 L71.38,78.99 C72.39,78.99 73.14,78.67 73.9,77.91 L74.22,77.6 C74.68,76.99 74.93,76.25 74.99,75.34 C74.98,74.36 74.65,73.61 73.91,72.87 C72.84,71.8 72.35,71.41 72.21,71.3 C71.34,70.86 70.91,69.84 71.22,68.89 C71.57,67.84 72.7,67.27 73.75,67.62 C74.09,67.73 74.6,67.9 76.73,70.04 C78.25,71.56 78.98,73.31 78.98,75.39 C78.98,75.42 78.98,75.46 78.98,75.49 C78.89,77.3 78.32,78.87 77.28,80.17 C77.23,80.23 77.18,80.28 77.13,80.34 L76.73,80.74 C75.23,82.22 73.43,82.98 71.37,82.98 Z" id="Shape"></path>
        </g>
    </g>
</svg>