<?xml version="1.0" encoding="UTF-8"?>
<svg width="50px" height="51px" viewBox="0 0 50 51" version="1.1" xmlns="http://www.w3.org/2000/svg" xmlns:xlink="http://www.w3.org/1999/xlink">
    <title>voting</title>
    <g id="icons" stroke="none" stroke-width="1" fill="none" fill-rule="evenodd">
        <g id="OUTLINED" transform="translate(-118.000000, -359.000000)" fill="#000000" fill-rule="nonzero">
            <path d="M140.948251,359 C145.45706,359 149.126176,362.602196 149.260523,367.094682 L149.264334,367.349906 L149.264,376.149 L162.055969,376.149845 C163.594338,376.132343 165.070037,376.720657 166.173802,377.774944 L166.376324,377.978049 L166.559182,378.179715 C167.630116,379.416982 168.137293,381.042076 167.967817,382.66516 L167.933287,382.935588 L164.568134,404.983687 C164.140983,407.813391 161.756529,409.916275 158.937813,409.997618 L158.701947,409.99969 L131.193473,409.99969 C130.680637,409.99969 130.257966,409.613649 130.2002,409.116311 L130.193473,408.99969 L130.193,389.549 L124.84246,409.261362 C124.734952,409.657379 124.398379,409.943291 123.998941,409.992002 L123.877389,409.99969 C120.704158,409.99969 118.11988,407.4756 118.004052,404.320555 L118,404.099435 L118,386.949655 C118,383.766271 120.512158,381.17015 123.65698,381.053788 L123.877389,381.049717 L130.542,381.049 L140.033746,359.595424 C140.176088,359.273674 140.475212,359.053466 140.817915,359.008503 L140.948251,359 Z M141.584,361.032 L132.193,382.26 L132.193,407.999 L158.713173,407.999999 C160.512338,408.019951 162.07067,406.79653 162.511559,405.074196 L162.555904,404.88081 L162.590784,404.683545 L165.955956,382.635319 C166.127046,381.502904 165.794532,380.352283 165.046979,379.488623 C164.350161,378.683578 163.358399,378.203683 162.296002,378.15384 L162.067345,378.14978 L148.264334,378.14978 C147.751499,378.14978 147.328827,377.76374 147.271062,377.266401 L147.264334,377.14978 L147.264334,367.349906 C147.264334,364.155642 144.918839,361.513638 141.866502,361.066632 L141.584,361.032 Z M129.885,383.049 L123.877389,383.049717 C121.803888,383.049717 120.108957,384.687389 120.005048,386.748874 L120,386.949655 L120,404.099435 C120,405.917636 121.236596,407.444043 122.908715,407.876655 L123.096257,407.920181 L123.132,407.926 L129.885,383.049 Z" id="voting"></path>
        </g>
    </g>
</svg>