<?xml version="1.0" encoding="UTF-8"?>
<svg width="50px" height="51px" viewBox="0 0 50 51" version="1.1" xmlns="http://www.w3.org/2000/svg" xmlns:xlink="http://www.w3.org/1999/xlink">
    <title>voting</title>
    <g id="05-Home" stroke="none" stroke-width="1" fill="none" fill-rule="evenodd" stroke-linecap="round" stroke-linejoin="round">
        <path d="M30.2643344,18.1497802 L30.2643344,8.34990578 C30.2643344,4.29066491 26.9888122,1 22.9482508,1 L13.1934727,23.0497174 L13.1934727,49.9996896 L40.701947,49.9996896 C43.1340247,50.0269937 45.2146565,48.2502808 45.5793361,45.8344253 L48.9447345,23.7847079 C49.1594763,22.3633717 48.7420721,20.9190012 47.8030804,19.8341687 C46.8640887,18.7493362 45.4982536,18.133501 44.0673455,18.1497802 L30.2643344,18.1497802 Z M13.1934727,49.9993719 L5.87738907,49.9993719 C3.18368147,49.9993719 1,47.8055953 1,45.0994347 L1,27.9496545 C1,25.243494 3.18368147,23.0497174 5.87738907,23.0497174 L13.1934727,23.0497174" id="voting" stroke="#000000" stroke-width="2"></path>
    </g>
</svg>