<?xml version="1.0" encoding="iso-8859-1"?>
<!-- Generator: Adobe Illustrator 19.0.0, SVG Export Plug-In . SVG Version: 6.00 Build 0)  -->
<svg version="1.1" id="Layer_1" xmlns="http://www.w3.org/2000/svg" xmlns:xlink="http://www.w3.org/1999/xlink" x="0px" y="0px"
	 viewBox="0 0 512 512" style="enable-background:new 0 0 512 512;" xml:space="preserve">
<g>
	<g>
		<path d="M510.855,355.115L333.625,20.347c-1.692-3.197-5-5.207-8.615-5.24c-3.154,0.005-6.952,1.918-8.702,5.082l-61.49,111.149
			L195.77,20.16c-1.711-3.212-5.048-5.39-8.692-5.39h-0.01c-3.644,0-6.99,2.188-8.692,5.409L1.145,355.031
			c-1.615,3.053-1.519,6.6,0.269,9.557c1.779,2.961,4.981,4.643,8.433,4.643h88.615c5.442,0,9.846-4.409,9.846-9.846
			c0-5.438-4.404-9.846-9.846-9.846H26.203L187.097,45.79l56.355,106.021L60.309,482.914c-1.692,3.048-1.635,6.617,0.135,9.618
			c1.769,3.005,5,4.698,8.481,4.698H433.23c3.452,0,6.663-1.644,8.442-4.606c1.779-2.966,1.875-6.56,0.25-9.613l-41.49-77.962
			c-2.558-4.798-8.529-6.608-13.317-4.046c-4.798,2.552-6.625,8.356-4.067,13.159l33.788,63.376H85.626l168.855-305.076
			l74.711,140.54c2.548,4.793,8.509,6.653,13.317,4.109c4.798-2.553,6.625-8.494,4.067-13.297l-80.721-151.748l58.875-106.604
			l161.066,304.075h-298.72c-5.442,0-9.846,4.409-9.846,9.846c0,5.438,4.404,9.846,9.846,9.846h315.075
			c3.452,0,6.654-1.639,8.433-4.601C512.374,361.673,512.47,358.168,510.855,355.115z"/>
	</g>
</g>
<g>
</g>
<g>
</g>
<g>
</g>
<g>
</g>
<g>
</g>
<g>
</g>
<g>
</g>
<g>
</g>
<g>
</g>
<g>
</g>
<g>
</g>
<g>
</g>
<g>
</g>
<g>
</g>
<g>
</g>
</svg>
