<?xml version="1.0" encoding="UTF-8"?>
<svg width="63px" height="62px" viewBox="0 0 63 62" version="1.1" xmlns="http://www.w3.org/2000/svg" xmlns:xlink="http://www.w3.org/1999/xlink">
    <title>vote</title>
    <g id="Page-1" stroke="none" stroke-width="1" fill="none" fill-rule="evenodd">
        <g id="vote" transform="translate(0.070000, 0.000000)" fill="#000000" fill-rule="nonzero">
            <path d="M62,12 L62,10 L57,10 C56.447,10 56,10.447 56,11 L52.414,11 L49,7.586 L49,1 C49,0.447 48.553,0 48,0 C44.691,0 42,2.691 42,6 L42,11 L34.5,11 C32.57,11 31,12.57 31,14.5 C31,15.48 31.407,16.364 32.058,17 C31.407,17.636 31,18.52 31,19.5 C31,20.754 31.669,21.848 32.663,22.466 C32.25,23.041 32,23.74 32,24.5 C32,25.754 32.669,26.848 33.663,27.466 C33.25,28.041 33,28.74 33,29.5 C33,31.43 34.57,33 36.5,33 L56,33 C56,33.553 56.447,34 57,34 L62,34 L62,32 L58,32 L58,12 L62,12 Z M36.5,31 C35.673,31 35,30.327 35,29.5 C35,28.673 35.673,28 36.5,28 L37,28 L38,28 L38,26 L37,26 L36.5,26 L35.5,26 C34.673,26 34,25.327 34,24.5 C34,23.673 34.673,23 35.5,23 L36,23 L37,23 L37,21 L36,21 L35.5,21 L34.5,21 C33.673,21 33,20.327 33,19.5 C33,18.673 33.673,18 34.5,18 L36,18 L36,16 L34.5,16 C33.673,16 33,15.327 33,14.5 C33,13.673 33.673,13 34.5,13 L43,13 C43.553,13 44,12.553 44,12 L44,6 C44,4.14 45.276,2.571 47,2.127 L47,8 C47,8.266 47.105,8.519 47.293,8.707 L51.293,12.707 C51.48,12.894 51.734,13 52,13 L56,13 L56,31 L36.5,31 Z" id="Shape"></path>
            <path d="M31,47.5 C31,46.52 30.593,45.636 29.942,45 C30.593,44.364 31,43.48 31,42.5 C31,41.246 30.331,40.152 29.336,39.534 C29.749,38.959 30,38.26 30,37.5 C30,36.246 29.331,35.152 28.336,34.534 C28.749,33.959 29,33.26 29,32.5 C29,30.57 27.43,29 25.5,29 L6,29 C6,28.447 5.553,28 5,28 L0,28 L0,30 L4,30 L4,50 L0,50 L0,52 L5,52 C5.553,52 6,51.553 6,51 L9.586,51 L13,54.414 L13,61 C13,61.553 13.447,62 14,62 C17.309,62 20,59.309 20,56 L20,51 L27.5,51 C29.43,51 31,49.43 31,47.5 Z M27.5,49 L19,49 C18.447,49 18,49.447 18,50 L18,56 C18,57.86 16.724,59.429 15,59.873 L15,54 C15,53.734 14.894,53.48 14.707,53.293 L10.707,49.293 C10.519,49.105 10.266,49 10,49 L6,49 L6,31 L25.5,31 C26.327,31 27,31.673 27,32.5 C27,33.327 26.327,34 25.5,34 L25,34 L24,34 L24,36 L25,36 L25.5,36 L26.5,36 C27.327,36 28,36.673 28,37.5 C28,38.327 27.327,39 26.5,39 L26,39 L25,39 L25,41 L26,41 L26.5,41 L27.5,41 C28.327,41 29,41.673 29,42.5 C29,43.327 28.327,44 27.5,44 L26,44 L26,46 L27.5,46 C28.327,46 29,46.673 29,47.5 C29,48.327 28.327,49 27.5,49 Z" id="Shape"></path>
            <path d="M31,10 C31.32,10 31.64,10.008 31.956,10.021 L32.044,8.023 C31.698,8.008 31.35,8 31,8 C19.896,8 10.383,15.915 8.379,26.819 L10.346,27.18 C12.175,17.226 20.861,10 31,10 Z" id="Path"></path>
            <path d="M31,52 C30.68,52 30.36,51.992 30.044,51.979 L29.956,53.977 C30.302,53.992 30.65,54 31,54 C42.103,54 51.617,46.085 53.621,35.181 L51.654,34.82 C49.825,44.774 41.139,52 31,52 Z" id="Path"></path>
        </g>
    </g>
</svg>