<?xml version="1.0" encoding="UTF-8"?>
<svg width="50px" height="41px" viewBox="0 0 50 41" version="1.1" xmlns="http://www.w3.org/2000/svg" xmlns:xlink="http://www.w3.org/1999/xlink">
    <title>wallet</title>
    <g id="icons" stroke="none" stroke-width="1" fill="none" fill-rule="evenodd">
        <g id="OUTLINED" transform="translate(-118.000000, -90.000000)" fill="#0B1823" fill-rule="nonzero">
            <path d="M159.634146,90 C163.959491,90 167.515687,93.3665081 167.788509,97.6591444 L167.800751,97.9127022 L167.804878,98.1707317 L167.804878,122.073171 C167.804878,126.398515 164.43837,129.954711 160.145734,130.227533 L159.892176,130.239775 L159.634146,130.243902 L126.170732,130.243902 C121.845387,130.243902 118.289191,126.877394 118.016369,122.584758 L118.004127,122.3312 L118,122.073171 L118,98.1707317 C118,93.8453872 121.366508,90.2891913 125.659144,90.0163693 L125.912702,90.0041269 L126.170732,90 L159.634146,90 Z M126.187253,91.9998635 L125.962299,92.0034433 C122.718776,92.1107835 120.120501,94.7176527 120.004073,97.9446125 L119.999864,98.1707317 L119.999864,122.05665 L120.003443,122.281604 C120.110784,125.525126 122.717653,128.123401 125.944613,128.239829 L126.170732,128.244039 L159.617625,128.244039 L159.842579,128.240459 C163.086102,128.133119 165.684377,125.52625 165.800805,122.29929 L165.805015,122.073171 L165.805015,98.1872526 L165.801435,97.9622987 C165.694095,94.7187762 163.087225,92.120501 159.860266,92.004073 L159.634146,91.9998635 L126.187253,91.9998635 Z M158.390244,107 C160.262624,107 161.780488,108.517864 161.780488,110.390244 C161.780488,112.262624 160.262624,113.780488 158.390244,113.780488 C156.517864,113.780488 155,112.262624 155,110.390244 C155,108.517864 156.517864,107 158.390244,107 Z M158.390244,109 C157.622433,109 157,109.622433 157,110.390244 C157,111.158054 157.622433,111.780488 158.390244,111.780488 C159.158054,111.780488 159.780488,111.158054 159.780488,110.390244 C159.780488,109.622433 159.158054,109 158.390244,109 Z" id="wallet"></path>
        </g>
    </g>
</svg>