<?xml version="1.0" encoding="UTF-8"?>
<svg width="24px" height="21px" viewBox="0 0 24 21" version="1.1" xmlns="http://www.w3.org/2000/svg" xmlns:xlink="http://www.w3.org/1999/xlink">
    <title>wallet</title>
    <g id="Symbols" stroke="none" stroke-width="1" fill="none" fill-rule="evenodd">
        <g id="wallet" fill="#2B3954" fill-rule="nonzero">
            <g transform="translate(0.000000, -0.000000)" id="Shape">
                <path d="M20.5714286,3.67346939 L20.5714286,2.93877551 C20.5714286,1.31556122 19.2558673,0 17.6326531,0 L4.40816327,0 C1.97357143,0 0,1.97357143 0,4.40816327 L0,16.1632653 C0,18.5978571 1.97357143,20.5714286 4.40816327,20.5714286 L20.5714286,20.5714286 C22.1946429,20.5714286 23.5102041,19.2558673 23.5102041,17.6326531 L23.5102041,6.6122449 C23.5102041,4.98903061 22.1946429,3.67346939 20.5714286,3.67346939 Z M21.3061224,17.6326531 C21.3061224,18.0376531 20.9764286,18.3673469 20.5714286,18.3673469 L4.40816327,18.3673469 C3.19270408,18.3673469 2.20408163,17.3787245 2.20408163,16.1632653 L2.20408163,4.40816327 C2.20408163,3.19270408 3.19270408,2.20408163 4.40816327,2.20408163 L17.6326531,2.20408163 C18.0376531,2.20408163 18.3673469,2.53377551 18.3673469,2.93877551 L18.3673469,4.40816327 L5.14285714,4.40816327 C4.73693878,4.40816327 4.40816327,4.73693878 4.40816327,5.14285714 C4.40816327,5.54877551 4.73693878,5.87755102 5.14285714,5.87755102 L20.5714286,5.87755102 C20.9764286,5.87755102 21.3061224,6.2072449 21.3061224,6.6122449 L21.3061224,17.6326531 Z M17.6326531,10.2857143 C16.8212755,10.2857143 16.1632653,10.9437245 16.1632653,11.755102 C16.1632653,12.5664796 16.8212755,13.2244898 17.6326531,13.2244898 C18.4440306,13.2244898 19.1020408,12.5664796 19.1020408,11.755102 C19.1020408,10.9437245 18.4440306,10.2857143 17.6326531,10.2857143 Z"></path>
            </g>
        </g>
    </g>
</svg>