<?xml version="1.0" encoding="UTF-8"?>
<svg width="50px" height="41px" viewBox="0 0 50 41" version="1.1" xmlns="http://www.w3.org/2000/svg" xmlns:xlink="http://www.w3.org/1999/xlink">
    <title>Combined Shape</title>
    <g id="05-Home" stroke="none" stroke-width="1" fill="none" fill-rule="evenodd" stroke-linecap="round" stroke-linejoin="round">
        <path d="M41.6341463,1 C45.5944321,1 48.804878,4.21044594 48.804878,8.17073171 L48.804878,8.17073171 L48.804878,32.0731707 C48.804878,36.0334565 45.5944321,39.2439024 41.6341463,39.2439024 L41.6341463,39.2439024 L8.17073171,39.2439024 C4.21044594,39.2439024 1,36.0334565 1,32.0731707 L1,32.0731707 L1,8.17073171 C1,4.21044594 4.21044594,1 8.17073171,1 L8.17073171,1 Z M40.3902439,18 C39.0701486,18 38,19.0701486 38,20.3902439 C38,21.7103392 39.0701486,22.7804878 40.3902439,22.7804878 C41.7103392,22.7804878 42.7804878,21.7103392 42.7804878,20.3902439 C42.7804878,19.0701486 41.7103392,18 40.3902439,18 Z" id="Combined-Shape" stroke="#0B1823" stroke-width="2"></path>
    </g>
</svg>