<svg width="320" height="280" viewBox="0 0 320 280" fill="none" xmlns="http://www.w3.org/2000/svg">
<path d="M242.841 111.965L78.005 111.965C75.7931 111.965 74 113.758 74 115.97L74 164.03C74 166.242 75.7931 168.035 78.005 168.035H242.841V192.329C242.841 195.638 246.624 197.519 249.262 195.523L318.412 143.194C320.529 141.591 320.529 138.409 318.412 136.806L249.262 84.4771C246.624 82.4808 242.841 84.3625 242.841 87.6707V111.965Z" fill="#19E1FF"/>
<path d="M0 32C0 14.3269 13.3035 0 29.7143 0H170.286C186.696 0 200 14.3269 200 32V248C200 265.673 186.696 280 170.286 280H29.7143C13.3035 280 0 265.673 0 248V32Z" fill="#0D1FFF"/>
<path fill-rule="evenodd" clip-rule="evenodd" d="M200 111.965V168.035H78.005C75.7931 168.035 74 166.242 74 164.03V115.97C74 113.758 75.7931 111.965 78.005 111.965H200Z" fill="#19FFFF"/>
</svg>
