<svg width="320" height="320" viewBox="0 0 320 320" fill="none" xmlns="http://www.w3.org/2000/svg">
<path fill-rule="evenodd" clip-rule="evenodd" d="M0 145.457H145.454V0H0V145.457ZM29.0886 29.0886H116.362V116.362H29.0886V29.0886ZM0 319.998H145.454V174.542H0V319.998ZM29.0886 203.635H116.362V290.683H29.0886V203.635ZM174.542 145.457V0H320V145.457H174.542ZM203.635 116.362H290.907V29.0886H203.635V116.362Z" fill="#0D1FFF"/>
<path fill-rule="evenodd" clip-rule="evenodd" d="M87.2713 58.1812H58.1812V87.2737H87.2713V58.1812ZM261.818 203.635H290.907V174.542H319.998V261.818H232.722V232.724H203.635V319.998H174.542V174.542H261.818V203.635ZM58.1812 232.724H87.2713V261.818H58.1812V232.724ZM232.721 290.909H261.819V320H232.721V290.909ZM320 290.909H290.903V320H320V290.909ZM232.721 58.1812H261.819V87.2737H232.721V58.1812Z" fill="#19E1FF"/>
</svg>
